<svg xmlns="http://www.w3.org/2000/svg" width="692.23" height="202.594" viewBox="0 0 692.23 202.594">
  <path id="Path_1109" data-name="Path 1109" d="M1766.888,1267.112a3,3,0,1,0,3-3A3,3,0,0,0,1766.888,1267.112Zm11.437-196.6a3,3,0,1,0,2.995-3A3,3,0,0,0,1778.325,1070.508Zm-11.437,186.256a3,3,0,1,0,3-2.995A3,3,0,0,0,1766.888,1256.764Zm11.437-144.866a3,3,0,1,0,2.995-2.995A3,3,0,0,0,1778.325,1111.9Zm0-31.043a3,3,0,1,0,2.995-2.995A3,3,0,0,0,1778.325,1080.855Zm0,10.348a3,3,0,1,0,2.995-2.995A3,3,0,0,0,1778.325,1091.2Zm0,10.348a3,3,0,1,0,2.995-3A3,3,0,0,0,1778.325,1101.551Zm-11.437,113.823a3,3,0,1,0,3-2.995A3,3,0,0,0,1766.888,1215.374Zm0-10.348a3,3,0,1,0,3-2.995A3,3,0,0,0,1766.888,1205.026Zm0-10.347a3,3,0,1,0,3-3A3,3,0,0,0,1766.888,1194.679Zm0,31.042a3,3,0,1,0,3-2.995A3,3,0,0,0,1766.888,1225.721Zm0,20.7a3,3,0,1,0,3-3A3,3,0,0,0,1766.888,1246.417Zm0-10.348a3,3,0,1,0,3-2.995A3,3,0,0,0,1766.888,1236.069Zm11.437-31.043a3,3,0,1,0,2.995-2.995A3,3,0,0,0,1778.325,1205.026Zm0,10.348a3,3,0,1,0,2.995-2.995A3,3,0,0,0,1778.325,1215.374Zm0-31.043a3,3,0,1,0,2.995-2.995A2.995,2.995,0,0,0,1778.325,1184.331Zm0,10.348a3,3,0,1,0,2.995-3A3,3,0,0,0,1778.325,1194.679Zm0,51.738a3,3,0,1,0,2.995-3A3,3,0,0,0,1778.325,1246.417Zm0-10.348a3,3,0,1,0,2.995-2.995A3,3,0,0,0,1778.325,1236.069Zm0-10.348a3,3,0,1,0,2.995-2.995A3,3,0,0,0,1778.325,1225.721Zm0-62.085a3,3,0,1,0,2.995-2.995A3,3,0,0,0,1778.325,1163.636Zm0-20.695a3,3,0,1,0,2.995-2.995A3,3,0,0,0,1778.325,1142.941Zm0-10.348a3,3,0,1,0,2.995-2.995A3,3,0,0,0,1778.325,1132.593Zm0,20.7a3,3,0,1,0,2.995-3A3,3,0,0,0,1778.325,1153.289Zm0-31.043a3,3,0,1,0,2.995-3A3,3,0,0,0,1778.325,1122.246Zm0,51.738a3,3,0,1,0,2.995-3A3,3,0,0,0,1778.325,1173.984Zm-11.437,10.347a3,3,0,1,0,3-2.995A2.995,2.995,0,0,0,1766.888,1184.331Zm-11.437,31.043a3,3,0,1,0,3-2.995A3,3,0,0,0,1755.451,1215.374Zm0-10.348a3,3,0,1,0,3-2.995A3,3,0,0,0,1755.451,1205.026Zm0-10.347a3,3,0,1,0,3-3A3,3,0,0,0,1755.451,1194.679Zm0-10.348a3,3,0,1,0,3-2.995A3,3,0,0,0,1755.451,1184.331Zm0,41.39a3,3,0,1,0,3-2.995A3,3,0,0,0,1755.451,1225.721Zm0,10.348a3,3,0,1,0,3-2.995A3,3,0,0,0,1755.451,1236.069Zm0-62.085a3,3,0,1,0,3-3A3,3,0,0,0,1755.451,1173.984Zm0-41.391a3,3,0,1,0,3-2.995A3,3,0,0,0,1755.451,1132.593Zm0,10.348a3,3,0,1,0,3-2.995A3,3,0,0,0,1755.451,1142.941Zm0,10.348a3,3,0,1,0,3-3A3,3,0,0,0,1755.451,1153.289Zm0-31.043a3,3,0,1,0,3-3A3,3,0,0,0,1755.451,1122.246Zm0,41.39a3,3,0,1,0,3-2.995A3,3,0,0,0,1755.451,1163.636Zm11.437,10.348a3,3,0,1,0,3-3A3,3,0,0,0,1766.888,1173.984Zm0-31.043a3,3,0,1,0,3-2.995A3,3,0,0,0,1766.888,1142.941Zm0-10.348a3,3,0,1,0,3-2.995A3,3,0,0,0,1766.888,1132.593Zm0-10.347a3,3,0,1,0,3-3A3,3,0,0,0,1766.888,1122.246Zm-11.437,134.518a3,3,0,1,0,3-2.995A3,3,0,0,0,1755.451,1256.764Zm11.437-103.475a3,3,0,1,0,3-3A3,3,0,0,0,1766.888,1153.289Zm0,10.347a3,3,0,1,0,3-2.995A3,3,0,0,0,1766.888,1163.636Zm0-51.738a3,3,0,1,0,3-2.995A3,3,0,0,0,1766.888,1111.9Zm0-10.347a3,3,0,1,0,3-3A3,3,0,0,0,1766.888,1101.551Zm0-31.043a3,3,0,1,0,3-3A3,3,0,0,0,1766.888,1070.508Zm-11.437,196.6a3,3,0,1,0,3-3A3,3,0,0,0,1755.451,1267.112Zm11.437-186.257a3,3,0,1,0,3-2.995A3,3,0,0,0,1766.888,1080.855Zm0,10.348a3,3,0,1,0,3-2.995A3,3,0,0,0,1766.888,1091.2Zm-11.437,155.214a3,3,0,1,0,3-3A3,3,0,0,0,1755.451,1246.417Zm45.748-51.738a2.995,2.995,0,1,0,2.995-3A3,3,0,0,0,1801.2,1194.679Zm0-10.348a2.995,2.995,0,1,0,2.995-2.995A2.995,2.995,0,0,0,1801.2,1184.331Zm0,20.695a2.995,2.995,0,1,0,2.995-2.995A3,3,0,0,0,1801.2,1205.026Zm0,10.348a2.995,2.995,0,1,0,2.995-2.995A3,3,0,0,0,1801.2,1215.374Zm0-41.39a2.995,2.995,0,1,0,2.995-3A3,3,0,0,0,1801.2,1173.984Zm0,62.085a2.995,2.995,0,1,0,2.995-2.995A3,3,0,0,0,1801.2,1236.069Zm0-10.348a2.995,2.995,0,1,0,2.995-2.995A3,3,0,0,0,1801.2,1225.721Zm0-93.128a2.995,2.995,0,1,0,2.995-2.995A3,3,0,0,0,1801.2,1132.593Zm0-10.347a2.995,2.995,0,1,0,2.995-3A3,3,0,0,0,1801.2,1122.246Zm0,31.043a2.995,2.995,0,1,0,2.995-3A3,3,0,0,0,1801.2,1153.289Zm0,10.347a2.995,2.995,0,1,0,2.995-2.995A3,3,0,0,0,1801.2,1163.636Zm0-20.695a2.995,2.995,0,1,0,2.995-2.995A3,3,0,0,0,1801.2,1142.941Zm0-31.043a2.995,2.995,0,1,0,2.995-2.995A3,3,0,0,0,1801.2,1111.9Zm11.437,31.043a2.995,2.995,0,1,0,2.995-2.995A3,3,0,0,0,1812.636,1142.941Zm0-10.348a2.995,2.995,0,1,0,2.995-2.995A3,3,0,0,0,1812.636,1132.593Zm0-10.347a2.995,2.995,0,1,0,2.995-3A3,3,0,0,0,1812.636,1122.246Zm0,31.043a2.995,2.995,0,1,0,2.995-3A3,3,0,0,0,1812.636,1153.289Zm0,10.347a2.995,2.995,0,1,0,2.995-2.995A3,3,0,0,0,1812.636,1163.636Zm0-51.738a2.995,2.995,0,1,0,2.995-2.995A3,3,0,0,0,1812.636,1111.9Zm0-41.39a2.995,2.995,0,1,0,2.995-3A3,3,0,0,0,1812.636,1070.508Zm-11.437,196.6a2.995,2.995,0,1,0,2.995-3A3,3,0,0,0,1801.2,1267.112Zm0-10.348a2.995,2.995,0,1,0,2.995-2.995A3,3,0,0,0,1801.2,1256.764Zm11.437-165.561a2.995,2.995,0,1,0,2.995-2.995A3,3,0,0,0,1812.636,1091.2Zm0-10.348a2.995,2.995,0,1,0,2.995-2.995A3,3,0,0,0,1812.636,1080.855ZM1801.2,1246.417a2.995,2.995,0,1,0,2.995-3A3,3,0,0,0,1801.2,1246.417Zm-11.437-20.7a3,3,0,1,0,2.995-2.995A3,3,0,0,0,1789.762,1225.721Zm0-93.128a3,3,0,1,0,2.995-2.995A3,3,0,0,0,1789.762,1132.593Zm0,10.348a3,3,0,1,0,2.995-2.995A3,3,0,0,0,1789.762,1142.941Zm0-20.7a3,3,0,1,0,2.995-3A3,3,0,0,0,1789.762,1122.246Zm0,51.738a3,3,0,1,0,2.995-3A3,3,0,0,0,1789.762,1173.984Zm0-20.7a3,3,0,1,0,2.995-3A3,3,0,0,0,1789.762,1153.289Zm0,10.347a3,3,0,1,0,2.995-2.995A3,3,0,0,0,1789.762,1163.636Zm0-51.738a3,3,0,1,0,2.995-2.995A3,3,0,0,0,1789.762,1111.9Zm0-41.39a3,3,0,1,0,2.995-3A3,3,0,0,0,1789.762,1070.508Zm11.437,31.043a2.995,2.995,0,1,0,2.995-3A3,3,0,0,0,1801.2,1101.551Zm-11.437,0a3,3,0,1,0,2.995-3A3,3,0,0,0,1789.762,1101.551Zm0-10.348a3,3,0,1,0,2.995-2.995A3,3,0,0,0,1789.762,1091.2Zm0-10.348a3,3,0,1,0,2.995-2.995A3,3,0,0,0,1789.762,1080.855Zm-91.494-10.347a3,3,0,1,0,2.995-3A3,3,0,0,0,1698.268,1070.508Zm91.494,196.6a3,3,0,1,0,2.995-3A3,3,0,0,0,1789.762,1267.112Zm0-10.348a3,3,0,1,0,2.995-2.995A3,3,0,0,0,1789.762,1256.764Zm11.437-186.256a2.995,2.995,0,1,0,2.995-3A3,3,0,0,0,1801.2,1070.508Zm-11.437,175.909a3,3,0,1,0,2.995-3A3,3,0,0,0,1789.762,1246.417Zm11.437-165.562a2.995,2.995,0,1,0,2.995-2.995A3,3,0,0,0,1801.2,1080.855Zm0,10.348a2.995,2.995,0,1,0,2.995-2.995A3,3,0,0,0,1801.2,1091.2Zm-22.874,165.561a3,3,0,1,0,2.995-2.995A3,3,0,0,0,1778.325,1256.764Zm11.437-62.085a3,3,0,1,0,2.995-3A3,3,0,0,0,1789.762,1194.679Zm0,10.347a3,3,0,1,0,2.995-2.995A3,3,0,0,0,1789.762,1205.026Zm0-20.695a3,3,0,1,0,2.995-2.995A2.995,2.995,0,0,0,1789.762,1184.331Zm0,31.043a3,3,0,1,0,2.995-2.995A3,3,0,0,0,1789.762,1215.374Zm0,20.695a3,3,0,1,0,2.995-2.995A3,3,0,0,0,1789.762,1236.069ZM1709.7,1091.2a3,3,0,1,0,3-2.995A3,3,0,0,0,1709.7,1091.2Zm0,134.518a3,3,0,1,0,3-2.995A3,3,0,0,0,1709.7,1225.721Zm0-10.347a3,3,0,1,0,3-2.995A3,3,0,0,0,1709.7,1215.374Zm0,20.695a3,3,0,1,0,3-2.995A3,3,0,0,0,1709.7,1236.069Zm0,20.7a3,3,0,1,0,3-2.995A3,3,0,0,0,1709.7,1256.764Zm0-10.347a3,3,0,1,0,3-3A3,3,0,0,0,1709.7,1246.417Zm0-41.391a3,3,0,1,0,3-2.995A3,3,0,0,0,1709.7,1205.026Zm0-31.042a3,3,0,1,0,3-3A3,3,0,0,0,1709.7,1173.984Zm0-20.7a3,3,0,1,0,3-3A3,3,0,0,0,1709.7,1153.289Zm0-20.7a3,3,0,1,0,3-2.995A3,3,0,0,0,1709.7,1132.593Zm0,62.086a3,3,0,1,0,3-3A3,3,0,0,0,1709.7,1194.679Zm0-31.043a3,3,0,1,0,3-2.995A3,3,0,0,0,1709.7,1163.636Zm0,20.7a3,3,0,1,0,3-2.995A2.995,2.995,0,0,0,1709.7,1184.331Zm11.437,10.348a3,3,0,1,0,3-3A3,3,0,0,0,1721.141,1194.679Zm-11.437-51.738a3,3,0,1,0,3-2.995A3,3,0,0,0,1709.7,1142.941Zm11.437,10.348a3,3,0,1,0,3-3A3,3,0,0,0,1721.141,1153.289Zm0,10.347a3,3,0,1,0,3-2.995A3,3,0,0,0,1721.141,1163.636Zm0-31.043a3,3,0,1,0,3-2.995A3,3,0,0,0,1721.141,1132.593Zm0,10.348a3,3,0,1,0,3-2.995A3,3,0,0,0,1721.141,1142.941Zm0,41.39a3,3,0,1,0,3-2.995A2.995,2.995,0,0,0,1721.141,1184.331Zm0-10.347a3,3,0,1,0,3-3A3,3,0,0,0,1721.141,1173.984Zm0-103.476a3,3,0,1,0,3-3A3,3,0,0,0,1721.141,1070.508Zm0,51.738a3,3,0,1,0,3-3A3,3,0,0,0,1721.141,1122.246Zm0-41.391a3,3,0,1,0,3-2.995A3,3,0,0,0,1721.141,1080.855Zm0,10.348a3,3,0,1,0,3-2.995A3,3,0,0,0,1721.141,1091.2Zm0,10.348a3,3,0,1,0,3-3A3,3,0,0,0,1721.141,1101.551Zm0,10.347a3,3,0,1,0,3-2.995A3,3,0,0,0,1721.141,1111.9ZM1709.7,1267.112a3,3,0,1,0,3-3A3,3,0,0,0,1709.7,1267.112Zm-11.436-134.519a3,3,0,1,0,2.995-2.995A3,3,0,0,0,1698.268,1132.593Zm0,31.043a3,3,0,1,0,2.995-2.995A3,3,0,0,0,1698.268,1163.636Zm0-20.695a3,3,0,1,0,2.995-2.995A3,3,0,0,0,1698.268,1142.941Zm0,10.348a3,3,0,1,0,2.995-3A3,3,0,0,0,1698.268,1153.289Zm0,31.042a3,3,0,1,0,2.995-2.995A2.995,2.995,0,0,0,1698.268,1184.331Zm0-10.347a3,3,0,1,0,2.995-3A3,3,0,0,0,1698.268,1173.984Zm0-93.129a3,3,0,1,0,2.995-2.995A3,3,0,0,0,1698.268,1080.855Zm0,41.391a3,3,0,1,0,2.995-3A3,3,0,0,0,1698.268,1122.246Zm0,72.433a3,3,0,1,0,2.995-3A3,3,0,0,0,1698.268,1194.679Zm0-103.476a3,3,0,1,0,2.995-2.995A3,3,0,0,0,1698.268,1091.2Zm0,10.348a3,3,0,1,0,2.995-3A3,3,0,0,0,1698.268,1101.551Zm0,10.347a3,3,0,1,0,2.995-2.995A3,3,0,0,0,1698.268,1111.9Zm0,124.171a3,3,0,1,0,2.995-2.995A3,3,0,0,0,1698.268,1236.069Zm114.368-62.085a2.995,2.995,0,1,0,2.995-3A3,3,0,0,0,1812.636,1173.984Zm-114.368,93.128a3,3,0,1,0,2.995-3A3,3,0,0,0,1698.268,1267.112Zm0-62.086a3,3,0,1,0,2.995-2.995A3,3,0,0,0,1698.268,1205.026Zm11.436-124.171a3,3,0,1,0,3-2.995A3,3,0,0,0,1709.7,1080.855Zm0,31.043a3,3,0,1,0,3-2.995A3,3,0,0,0,1709.7,1111.9Zm0-10.347a3,3,0,1,0,3-3A3,3,0,0,0,1709.7,1101.551Zm0-31.043a3,3,0,1,0,3-3A3,3,0,0,0,1709.7,1070.508Zm-11.436,186.256a3,3,0,1,0,2.995-2.995A3,3,0,0,0,1698.268,1256.764Zm0-41.39a3,3,0,1,0,2.995-2.995A3,3,0,0,0,1698.268,1215.374Zm0,10.347a3,3,0,1,0,2.995-2.995A3,3,0,0,0,1698.268,1225.721Zm0,20.7a3,3,0,1,0,2.995-3A3,3,0,0,0,1698.268,1246.417Zm11.436-124.171a3,3,0,1,0,3-3A3,3,0,0,0,1709.7,1122.246Zm11.437,103.475a3,3,0,1,0,3-2.995A3,3,0,0,0,1721.141,1225.721Zm22.874-72.432a2.995,2.995,0,1,0,2.995-3A3,3,0,0,0,1744.015,1153.289Zm0-10.348a2.995,2.995,0,1,0,2.995-2.995A3,3,0,0,0,1744.015,1142.941Zm0-10.348a2.995,2.995,0,1,0,2.995-2.995A3,3,0,0,0,1744.015,1132.593Zm0,31.043a2.995,2.995,0,1,0,2.995-2.995A3,3,0,0,0,1744.015,1163.636Zm0,20.7a2.995,2.995,0,1,0,2.995-2.995A2.994,2.994,0,0,0,1744.015,1184.331Zm0-62.085a2.995,2.995,0,1,0,2.995-3A3,3,0,0,0,1744.015,1122.246Zm0,51.738a2.995,2.995,0,1,0,2.995-3A3,3,0,0,0,1744.015,1173.984Zm0-62.086a2.995,2.995,0,1,0,2.995-2.995A3,3,0,0,0,1744.015,1111.9Zm0-31.043a2.995,2.995,0,1,0,2.995-2.995A3,3,0,0,0,1744.015,1080.855Zm0-10.347a2.995,2.995,0,1,0,2.995-3A3,3,0,0,0,1744.015,1070.508Zm0,20.695a2.995,2.995,0,1,0,2.995-2.995A3,3,0,0,0,1744.015,1091.2Zm0,10.348a2.995,2.995,0,1,0,2.995-3A3,3,0,0,0,1744.015,1101.551Zm11.436,0a3,3,0,1,0,3-3A3,3,0,0,0,1755.451,1101.551Zm-11.436,155.213a2.995,2.995,0,1,0,2.995-2.995A3,3,0,0,0,1744.015,1256.764Zm0,10.348a2.995,2.995,0,1,0,2.995-3A3,3,0,0,0,1744.015,1267.112Zm11.436-186.257a3,3,0,1,0,3-2.995A3,3,0,0,0,1755.451,1080.855Zm0-10.347a3,3,0,1,0,3-3A3,3,0,0,0,1755.451,1070.508Zm0,20.695a3,3,0,1,0,3-2.995A3,3,0,0,0,1755.451,1091.2Zm-22.873,175.909a3,3,0,1,0,2.995-3A3,3,0,0,0,1732.578,1267.112Zm11.437-62.086a2.995,2.995,0,1,0,2.995-2.995A3,3,0,0,0,1744.015,1205.026Zm0,41.391a2.995,2.995,0,1,0,2.995-3A3,3,0,0,0,1744.015,1246.417Zm0-31.043a2.995,2.995,0,1,0,2.995-2.995A3,3,0,0,0,1744.015,1215.374Zm0-20.7a2.995,2.995,0,1,0,2.995-3A3,3,0,0,0,1744.015,1194.679Zm0,41.39a2.995,2.995,0,1,0,2.995-2.995A3,3,0,0,0,1744.015,1236.069Zm0-10.348a2.995,2.995,0,1,0,2.995-2.995A3,3,0,0,0,1744.015,1225.721ZM1732.578,1111.9a3,3,0,1,0,2.995-2.995A3,3,0,0,0,1732.578,1111.9Zm0-31.043a3,3,0,1,0,2.995-2.995A3,3,0,0,0,1732.578,1080.855Zm0,41.391a3,3,0,1,0,2.995-3A3,3,0,0,0,1732.578,1122.246Zm0,134.518a3,3,0,1,0,2.995-2.995A3,3,0,0,0,1732.578,1256.764Zm-11.437,10.348a3,3,0,1,0,3-3A3,3,0,0,0,1721.141,1267.112Zm11.437-165.561a3,3,0,1,0,2.995-3A3,3,0,0,0,1732.578,1101.551Zm-11.437,103.475a3,3,0,1,0,3-2.995A3,3,0,0,0,1721.141,1205.026Zm11.437-134.518a3,3,0,1,0,2.995-3A3,3,0,0,0,1732.578,1070.508Zm-11.437,186.256a3,3,0,1,0,3-2.995A3,3,0,0,0,1721.141,1256.764Zm34.31-144.866a3,3,0,1,0,3-2.995A3,3,0,0,0,1755.451,1111.9Zm-34.31,103.476a3,3,0,1,0,3-2.995A3,3,0,0,0,1721.141,1215.374Zm0,20.695a3,3,0,1,0,3-2.995A3,3,0,0,0,1721.141,1236.069Zm0,10.348a3,3,0,1,0,3-3A3,3,0,0,0,1721.141,1246.417Zm11.437-155.214a3,3,0,1,0,2.995-2.995A3,3,0,0,0,1732.578,1091.2Zm0,103.476a3,3,0,1,0,2.995-3A3,3,0,0,0,1732.578,1194.679Zm0,10.347a3,3,0,1,0,2.995-2.995A3,3,0,0,0,1732.578,1205.026Zm0-72.433a3,3,0,1,0,2.995-2.995A3,3,0,0,0,1732.578,1132.593Zm0,82.781a3,3,0,1,0,2.995-2.995A3,3,0,0,0,1732.578,1215.374Zm0,31.043a3,3,0,1,0,2.995-3A3,3,0,0,0,1732.578,1246.417Zm0-10.348a3,3,0,1,0,2.995-2.995A3,3,0,0,0,1732.578,1236.069Zm0-10.348a3,3,0,1,0,2.995-2.995A3,3,0,0,0,1732.578,1225.721Zm0-41.39a3,3,0,1,0,2.995-2.995A2.994,2.994,0,0,0,1732.578,1184.331Zm0-41.39a3,3,0,1,0,2.995-2.995A3,3,0,0,0,1732.578,1142.941Zm0,10.348a3,3,0,1,0,2.995-3A3,3,0,0,0,1732.578,1153.289Zm0,20.7a3,3,0,1,0,2.995-3A3,3,0,0,0,1732.578,1173.984Zm0-10.348a3,3,0,1,0,2.995-2.995A3,3,0,0,0,1732.578,1163.636Zm45.747,103.476a3,3,0,1,0,2.995-3A3,3,0,0,0,1778.325,1267.112Zm125.805-113.823a2.995,2.995,0,1,0,2.995-3A3,3,0,0,0,1904.13,1153.289Zm-11.437,41.39a3,3,0,1,0,2.995-3A3,3,0,0,0,1892.693,1194.679Zm0-31.043a3,3,0,1,0,2.995-2.995A3,3,0,0,0,1892.693,1163.636Zm0,10.348a3,3,0,1,0,2.995-3A3,3,0,0,0,1892.693,1173.984Zm0,31.042a3,3,0,1,0,2.995-2.995A3,3,0,0,0,1892.693,1205.026Zm0,10.348a3,3,0,1,0,2.995-2.995A3,3,0,0,0,1892.693,1215.374Zm0-93.128a3,3,0,1,0,2.995-3A3,3,0,0,0,1892.693,1122.246Zm0-10.348a3,3,0,1,0,2.995-2.995A3,3,0,0,0,1892.693,1111.9Zm0,113.823a3,3,0,1,0,2.995-2.995A3,3,0,0,0,1892.693,1225.721Zm0-124.17a3,3,0,1,0,2.995-3A3,3,0,0,0,1892.693,1101.551Zm0,51.738a3,3,0,1,0,2.995-3A3,3,0,0,0,1892.693,1153.289Zm0-10.348a3,3,0,1,0,2.995-2.995A3,3,0,0,0,1892.693,1142.941Zm0-10.348a3,3,0,1,0,2.995-2.995A3,3,0,0,0,1892.693,1132.593Zm0,134.519a3,3,0,1,0,2.995-3A3,3,0,0,0,1892.693,1267.112Zm0-31.043a3,3,0,1,0,2.995-2.995A3,3,0,0,0,1892.693,1236.069ZM1904.13,1111.9a2.995,2.995,0,1,0,2.995-2.995A3,3,0,0,0,1904.13,1111.9Zm0-10.347a2.995,2.995,0,1,0,2.995-3A3,3,0,0,0,1904.13,1101.551Zm0,31.042a2.995,2.995,0,1,0,2.995-2.995A3,3,0,0,0,1904.13,1132.593Zm0-41.39a2.995,2.995,0,1,0,2.995-2.995A3,3,0,0,0,1904.13,1091.2Zm0,51.738a2.995,2.995,0,1,0,2.995-2.995A3,3,0,0,0,1904.13,1142.941Zm0-20.7a2.995,2.995,0,1,0,2.995-3A3,3,0,0,0,1904.13,1122.246Zm-11.437,134.518a3,3,0,1,0,2.995-2.995A3,3,0,0,0,1892.693,1256.764Zm0-10.347a3,3,0,1,0,2.995-3A3,3,0,0,0,1892.693,1246.417Zm0-155.214a3,3,0,1,0,2.995-2.995A3,3,0,0,0,1892.693,1091.2Zm11.437-20.695a2.995,2.995,0,1,0,2.995-3A3,3,0,0,0,1904.13,1070.508Zm0,10.347a2.995,2.995,0,1,0,2.995-2.995A3,3,0,0,0,1904.13,1080.855Zm-11.437,103.476a3,3,0,1,0,2.995-2.995A2.995,2.995,0,0,0,1892.693,1184.331Zm-11.437-62.085a3,3,0,1,0,3-3A3,3,0,0,0,1881.256,1122.246Zm0,31.043a3,3,0,1,0,3-3A3,3,0,0,0,1881.256,1153.289Zm0-62.086a3,3,0,1,0,3-2.995A3,3,0,0,0,1881.256,1091.2Zm0,10.348a3,3,0,1,0,3-3A3,3,0,0,0,1881.256,1101.551Zm11.437-20.7a3,3,0,1,0,2.995-2.995A3,3,0,0,0,1892.693,1080.855Zm-11.437,51.738a3,3,0,1,0,3-2.995A3,3,0,0,0,1881.256,1132.593Zm0-20.7a3,3,0,1,0,3-2.995A3,3,0,0,0,1881.256,1111.9Zm-11.437,144.866a3,3,0,1,0,3-2.995A3,3,0,0,0,1869.819,1256.764Zm0-20.7a3,3,0,1,0,3-2.995A3,3,0,0,0,1869.819,1236.069Zm0,10.348a3,3,0,1,0,3-3A3,3,0,0,0,1869.819,1246.417Zm0,20.7a3,3,0,1,0,3-3A3,3,0,0,0,1869.819,1267.112Zm11.437-196.6a3,3,0,1,0,3-3A3,3,0,0,0,1881.256,1070.508Zm0,72.433a3,3,0,1,0,3-2.995A3,3,0,0,0,1881.256,1142.941Zm0,103.476a3,3,0,1,0,3-3A3,3,0,0,0,1881.256,1246.417Zm0-10.348a3,3,0,1,0,3-2.995A3,3,0,0,0,1881.256,1236.069Zm0-10.348a3,3,0,1,0,3-2.995A3,3,0,0,0,1881.256,1225.721Zm0,31.043a3,3,0,1,0,3-2.995A3,3,0,0,0,1881.256,1256.764Zm0,10.348a3,3,0,1,0,3-3A3,3,0,0,0,1881.256,1267.112Zm0-103.476a3,3,0,1,0,3-2.995A3,3,0,0,0,1881.256,1163.636Zm11.437-93.128a3,3,0,1,0,2.995-3A3,3,0,0,0,1892.693,1070.508Zm-11.437,113.823a3,3,0,1,0,3-2.995A2.995,2.995,0,0,0,1881.256,1184.331Zm0-10.347a3,3,0,1,0,3-3A3,3,0,0,0,1881.256,1173.984Zm0,20.695a3,3,0,1,0,3-3A3,3,0,0,0,1881.256,1194.679Zm0,20.7a3,3,0,1,0,3-2.995A3,3,0,0,0,1881.256,1215.374Zm0-10.348a3,3,0,1,0,3-2.995A3,3,0,0,0,1881.256,1205.026Zm-68.62-20.695a2.995,2.995,0,1,0,2.995-2.995A2.995,2.995,0,0,0,1812.636,1184.331ZM1927,1111.9a3,3,0,1,0,3-2.995A3,3,0,0,0,1927,1111.9Zm0-10.347a3,3,0,1,0,3-3A3,3,0,0,0,1927,1101.551Zm0,41.39a3,3,0,1,0,3-2.995A3,3,0,0,0,1927,1142.941Zm0-20.7a3,3,0,1,0,3-3A3,3,0,0,0,1927,1122.246Zm0-41.391a3,3,0,1,0,3-2.995A3,3,0,0,0,1927,1080.855Zm0,51.738a3,3,0,1,0,3-2.995A3,3,0,0,0,1927,1132.593Zm0-41.39a3,3,0,1,0,3-2.995A3,3,0,0,0,1927,1091.2Zm-11.436,144.866a2.995,2.995,0,1,0,2.995-2.995A3,3,0,0,0,1915.567,1236.069Zm0,10.348a2.995,2.995,0,1,0,2.995-3A3,3,0,0,0,1915.567,1246.417Zm0,10.347a2.995,2.995,0,1,0,2.995-2.995A3,3,0,0,0,1915.567,1256.764Zm0,10.348a2.995,2.995,0,1,0,2.995-3A3,3,0,0,0,1915.567,1267.112Zm11.436-196.6a3,3,0,1,0,3-3A3,3,0,0,0,1927,1070.508Zm0,165.561a3,3,0,1,0,3-2.995A3,3,0,0,0,1927,1236.069Zm0-20.695a3,3,0,1,0,3-2.995A3,3,0,0,0,1927,1215.374Zm0,31.043a3,3,0,1,0,3-3A3,3,0,0,0,1927,1246.417Zm0-20.7a3,3,0,1,0,3-2.995A3,3,0,0,0,1927,1225.721Zm-11.436,0a2.995,2.995,0,1,0,2.995-2.995A3,3,0,0,0,1915.567,1225.721ZM1927,1267.112a3,3,0,1,0,3-3A3,3,0,0,0,1927,1267.112Zm0-10.348a3,3,0,1,0,3-2.995A3,3,0,0,0,1927,1256.764Zm0-103.475a3,3,0,1,0,3-3A3,3,0,0,0,1927,1153.289Zm0,20.7a3,3,0,1,0,3-3A3,3,0,0,0,1927,1173.984Zm0-10.348a3,3,0,1,0,3-2.995A3,3,0,0,0,1927,1163.636Zm0,41.39a3,3,0,1,0,3-2.995A3,3,0,0,0,1927,1205.026Zm0-20.695a3,3,0,1,0,3-2.995A2.995,2.995,0,0,0,1927,1184.331Zm0,10.348a3,3,0,1,0,3-3A3,3,0,0,0,1927,1194.679Zm-22.873,20.7a2.995,2.995,0,1,0,2.995-2.995A3,3,0,0,0,1904.13,1215.374Zm0,41.39a2.995,2.995,0,1,0,2.995-2.995A3,3,0,0,0,1904.13,1256.764Zm0-10.347a2.995,2.995,0,1,0,2.995-3A3,3,0,0,0,1904.13,1246.417Zm0-10.348a2.995,2.995,0,1,0,2.995-2.995A3,3,0,0,0,1904.13,1236.069Zm0,31.043a2.995,2.995,0,1,0,2.995-3A3,3,0,0,0,1904.13,1267.112Zm11.437-196.6a2.995,2.995,0,1,0,2.995-3A3,3,0,0,0,1915.567,1070.508Zm-11.437,155.213a2.995,2.995,0,1,0,2.995-2.995A3,3,0,0,0,1904.13,1225.721Zm0-51.737a2.995,2.995,0,1,0,2.995-3A3,3,0,0,0,1904.13,1173.984Zm0,10.347a2.995,2.995,0,1,0,2.995-2.995A2.994,2.994,0,0,0,1904.13,1184.331Zm11.437-103.476a2.995,2.995,0,1,0,2.995-2.995A3,3,0,0,0,1915.567,1080.855Zm-11.437,82.781a2.995,2.995,0,1,0,2.995-2.995A3,3,0,0,0,1904.13,1163.636Zm0,41.39a2.995,2.995,0,1,0,2.995-2.995A3,3,0,0,0,1904.13,1205.026Zm0-10.347a2.995,2.995,0,1,0,2.995-3A3,3,0,0,0,1904.13,1194.679Zm11.437,0a2.995,2.995,0,1,0,2.995-3A3,3,0,0,0,1915.567,1194.679Zm0-20.695a2.995,2.995,0,1,0,2.995-3A3,3,0,0,0,1915.567,1173.984Zm0-10.348a2.995,2.995,0,1,0,2.995-2.995A3,3,0,0,0,1915.567,1163.636Zm0,20.7a2.995,2.995,0,1,0,2.995-2.995A2.994,2.994,0,0,0,1915.567,1184.331Zm0-31.042a2.995,2.995,0,1,0,2.995-3A3,3,0,0,0,1915.567,1153.289Zm0,51.737a2.995,2.995,0,1,0,2.995-2.995A3,3,0,0,0,1915.567,1205.026Zm0,10.348a2.995,2.995,0,1,0,2.995-2.995A3,3,0,0,0,1915.567,1215.374Zm0-72.433a2.995,2.995,0,1,0,2.995-2.995A3,3,0,0,0,1915.567,1142.941Zm0-41.39a2.995,2.995,0,1,0,2.995-3A3,3,0,0,0,1915.567,1101.551Zm0-10.348a2.995,2.995,0,1,0,2.995-2.995A3,3,0,0,0,1915.567,1091.2Zm0,20.695a2.995,2.995,0,1,0,2.995-2.995A3,3,0,0,0,1915.567,1111.9Zm0,20.7a2.995,2.995,0,1,0,2.995-2.995A3,3,0,0,0,1915.567,1132.593Zm0-10.347a2.995,2.995,0,1,0,2.995-3A3,3,0,0,0,1915.567,1122.246Zm-34.311-41.391a3,3,0,1,0,3-2.995A3,3,0,0,0,1881.256,1080.855Zm-45.747,51.738a3,3,0,1,0,2.995-2.995A3,3,0,0,0,1835.509,1132.593Zm0-20.7a3,3,0,1,0,2.995-2.995A3,3,0,0,0,1835.509,1111.9Zm0,10.348a3,3,0,1,0,2.995-3A3,3,0,0,0,1835.509,1122.246Zm0,20.7a3,3,0,1,0,2.995-2.995A3,3,0,0,0,1835.509,1142.941Zm0,20.695a3,3,0,1,0,2.995-2.995A3,3,0,0,0,1835.509,1163.636Zm0-10.347a3,3,0,1,0,2.995-3A3,3,0,0,0,1835.509,1153.289Zm0-62.086a3,3,0,1,0,2.995-2.995A3,3,0,0,0,1835.509,1091.2Zm-11.437,175.909a3,3,0,1,0,3-3A3,3,0,0,0,1824.072,1267.112Zm11.437-196.6a3,3,0,1,0,2.995-3A3,3,0,0,0,1835.509,1070.508Zm-11.437,186.256a3,3,0,1,0,3-2.995A3,3,0,0,0,1824.072,1256.764Zm45.747-31.043a3,3,0,1,0,3-2.995A3,3,0,0,0,1869.819,1225.721Zm-45.747,20.7a3,3,0,1,0,3-3A3,3,0,0,0,1824.072,1246.417Zm11.437-72.433a3,3,0,1,0,2.995-3A3,3,0,0,0,1835.509,1173.984Zm0-93.129a3,3,0,1,0,2.995-2.995A3,3,0,0,0,1835.509,1080.855Zm0,186.257a3,3,0,1,0,2.995-3A3,3,0,0,0,1835.509,1267.112Zm0-20.7a3,3,0,1,0,2.995-3A3,3,0,0,0,1835.509,1246.417Zm11.437-175.909a2.995,2.995,0,1,0,2.995-3A3,3,0,0,0,1846.946,1070.508Zm-11.437,186.256a3,3,0,1,0,2.995-2.995A3,3,0,0,0,1835.509,1256.764Zm11.437-175.909a2.995,2.995,0,1,0,2.995-2.995A3,3,0,0,0,1846.946,1080.855Zm0,10.348a2.995,2.995,0,1,0,2.995-2.995A3,3,0,0,0,1846.946,1091.2Zm-11.437,144.866a3,3,0,1,0,2.995-2.995A3,3,0,0,0,1835.509,1236.069Zm0-41.39a3,3,0,1,0,2.995-3A3,3,0,0,0,1835.509,1194.679Zm0,10.347a3,3,0,1,0,2.995-2.995A3,3,0,0,0,1835.509,1205.026Zm0,20.695a3,3,0,1,0,2.995-2.995A3,3,0,0,0,1835.509,1225.721Zm0-10.347a3,3,0,1,0,2.995-2.995A3,3,0,0,0,1835.509,1215.374Zm0-31.043a3,3,0,1,0,2.995-2.995A2.994,2.994,0,0,0,1835.509,1184.331Zm-22.873,72.433a2.995,2.995,0,1,0,2.995-2.995A3,3,0,0,0,1812.636,1256.764Zm11.436-186.256a3,3,0,1,0,3-3A3,3,0,0,0,1824.072,1070.508Zm-11.436,196.6a2.995,2.995,0,1,0,2.995-3A3,3,0,0,0,1812.636,1267.112Zm0-20.7a2.995,2.995,0,1,0,2.995-3A3,3,0,0,0,1812.636,1246.417Zm34.31-144.866a2.995,2.995,0,1,0,2.995-3A3,3,0,0,0,1846.946,1101.551Zm-22.874-20.7a3,3,0,1,0,3-2.995A3,3,0,0,0,1824.072,1080.855Zm0,10.348a3,3,0,1,0,3-2.995A3,3,0,0,0,1824.072,1091.2Zm-11.436,113.823a2.995,2.995,0,1,0,2.995-2.995A3,3,0,0,0,1812.636,1205.026Zm11.436-103.475a3,3,0,1,0,3-3A3,3,0,0,0,1824.072,1101.551Zm-11.436,93.128a2.995,2.995,0,1,0,2.995-3A3,3,0,0,0,1812.636,1194.679Zm0,31.042a2.995,2.995,0,1,0,2.995-2.995A3,3,0,0,0,1812.636,1225.721Zm0,10.348a2.995,2.995,0,1,0,2.995-2.995A3,3,0,0,0,1812.636,1236.069Zm0-20.695a2.995,2.995,0,1,0,2.995-2.995A3,3,0,0,0,1812.636,1215.374Zm11.436-31.043a3,3,0,1,0,3-2.995A2.995,2.995,0,0,0,1824.072,1184.331Zm0-10.347a3,3,0,1,0,3-3A3,3,0,0,0,1824.072,1173.984Zm0,62.085a3,3,0,1,0,3-2.995A3,3,0,0,0,1824.072,1236.069Zm0-31.043a3,3,0,1,0,3-2.995A3,3,0,0,0,1824.072,1205.026Zm0-10.347a3,3,0,1,0,3-3A3,3,0,0,0,1824.072,1194.679Zm0,31.042a3,3,0,1,0,3-2.995A3,3,0,0,0,1824.072,1225.721Zm0-10.347a3,3,0,1,0,3-2.995A3,3,0,0,0,1824.072,1215.374Zm0-93.128a3,3,0,1,0,3-3A3,3,0,0,0,1824.072,1122.246Zm0-10.348a3,3,0,1,0,3-2.995A3,3,0,0,0,1824.072,1111.9Zm0,20.7a3,3,0,1,0,3-2.995A3,3,0,0,0,1824.072,1132.593Zm0,20.7a3,3,0,1,0,3-3A3,3,0,0,0,1824.072,1153.289Zm0,10.347a3,3,0,1,0,3-2.995A3,3,0,0,0,1824.072,1163.636Zm0-20.695a3,3,0,1,0,3-2.995A3,3,0,0,0,1824.072,1142.941Zm11.437-41.39a3,3,0,1,0,2.995-3A3,3,0,0,0,1835.509,1101.551Zm22.874,165.561a2.995,2.995,0,1,0,2.995-3A3,3,0,0,0,1858.383,1267.112Zm0-10.348a2.995,2.995,0,1,0,2.995-2.995A3,3,0,0,0,1858.383,1256.764Zm11.436-165.561a3,3,0,1,0,3-2.995A3,3,0,0,0,1869.819,1091.2Zm0-10.348a3,3,0,1,0,3-2.995A3,3,0,0,0,1869.819,1080.855Zm0-10.347a3,3,0,1,0,3-3A3,3,0,0,0,1869.819,1070.508Zm-11.436,165.561a2.995,2.995,0,1,0,2.995-2.995A3,3,0,0,0,1858.383,1236.069Zm0,10.348a2.995,2.995,0,1,0,2.995-3A3,3,0,0,0,1858.383,1246.417Zm0-20.7a2.995,2.995,0,1,0,2.995-2.995A3,3,0,0,0,1858.383,1225.721Zm0-31.042a2.995,2.995,0,1,0,2.995-3A3,3,0,0,0,1858.383,1194.679Zm0-10.348a2.995,2.995,0,1,0,2.995-2.995A2.994,2.994,0,0,0,1858.383,1184.331Zm0,31.043a2.995,2.995,0,1,0,2.995-2.995A3,3,0,0,0,1858.383,1215.374Zm0-10.348a2.995,2.995,0,1,0,2.995-2.995A3,3,0,0,0,1858.383,1205.026Zm11.436-31.042a3,3,0,1,0,3-3A3,3,0,0,0,1869.819,1173.984Zm0,20.695a3,3,0,1,0,3-3A3,3,0,0,0,1869.819,1194.679Zm0-10.348a3,3,0,1,0,3-2.995A2.995,2.995,0,0,0,1869.819,1184.331Zm-11.436-10.347a2.995,2.995,0,1,0,2.995-3A3,3,0,0,0,1858.383,1173.984Zm11.436,31.042a3,3,0,1,0,3-2.995A3,3,0,0,0,1869.819,1205.026Zm0,10.348a3,3,0,1,0,3-2.995A3,3,0,0,0,1869.819,1215.374Zm0-113.823a3,3,0,1,0,3-3A3,3,0,0,0,1869.819,1101.551Zm0,62.085a3,3,0,1,0,3-2.995A3,3,0,0,0,1869.819,1163.636Zm0-10.347a3,3,0,1,0,3-3A3,3,0,0,0,1869.819,1153.289Zm0-31.043a3,3,0,1,0,3-3A3,3,0,0,0,1869.819,1122.246Zm0-10.348a3,3,0,1,0,3-2.995A3,3,0,0,0,1869.819,1111.9Zm0,31.043a3,3,0,1,0,3-2.995A3,3,0,0,0,1869.819,1142.941Zm0-10.348a3,3,0,1,0,3-2.995A3,3,0,0,0,1869.819,1132.593Zm-22.873-20.7a2.995,2.995,0,1,0,2.995-2.995A3,3,0,0,0,1846.946,1111.9Zm0,82.781a2.995,2.995,0,1,0,2.995-3A3,3,0,0,0,1846.946,1194.679Zm0,10.347a2.995,2.995,0,1,0,2.995-2.995A3,3,0,0,0,1846.946,1205.026Zm0-20.695a2.995,2.995,0,1,0,2.995-2.995A2.994,2.994,0,0,0,1846.946,1184.331Zm0-10.347a2.995,2.995,0,1,0,2.995-3A3,3,0,0,0,1846.946,1173.984Zm0,51.737a2.995,2.995,0,1,0,2.995-2.995A3,3,0,0,0,1846.946,1225.721Zm0-10.347a2.995,2.995,0,1,0,2.995-2.995A3,3,0,0,0,1846.946,1215.374Zm0-82.781a2.995,2.995,0,1,0,2.995-2.995A3,3,0,0,0,1846.946,1132.593Zm0,103.476a2.995,2.995,0,1,0,2.995-2.995A3,3,0,0,0,1846.946,1236.069Zm0-72.433a2.995,2.995,0,1,0,2.995-2.995A3,3,0,0,0,1846.946,1163.636Zm0-41.39a2.995,2.995,0,1,0,2.995-3A3,3,0,0,0,1846.946,1122.246Zm0,31.043a2.995,2.995,0,1,0,2.995-3A3,3,0,0,0,1846.946,1153.289Zm0-10.348a2.995,2.995,0,1,0,2.995-2.995A3,3,0,0,0,1846.946,1142.941Zm11.437-62.086a2.995,2.995,0,1,0,2.995-2.995A3,3,0,0,0,1858.383,1080.855Zm0,51.738a2.995,2.995,0,1,0,2.995-2.995A3,3,0,0,0,1858.383,1132.593Zm0-10.347a2.995,2.995,0,1,0,2.995-3A3,3,0,0,0,1858.383,1122.246Zm0-10.348a2.995,2.995,0,1,0,2.995-2.995A3,3,0,0,0,1858.383,1111.9Zm-11.437,134.519a2.995,2.995,0,1,0,2.995-3A3,3,0,0,0,1846.946,1246.417Zm11.437-93.128a2.995,2.995,0,1,0,2.995-3A3,3,0,0,0,1858.383,1153.289Zm0-10.348a2.995,2.995,0,1,0,2.995-2.995A3,3,0,0,0,1858.383,1142.941Zm0-41.39a2.995,2.995,0,1,0,2.995-3A3,3,0,0,0,1858.383,1101.551Zm-11.437,155.213a2.995,2.995,0,1,0,2.995-2.995A3,3,0,0,0,1846.946,1256.764Zm0,10.348a2.995,2.995,0,1,0,2.995-3A3,3,0,0,0,1846.946,1267.112Zm11.437-196.6a2.995,2.995,0,1,0,2.995-3A3,3,0,0,0,1858.383,1070.508Zm0,93.128a2.995,2.995,0,1,0,2.995-2.995A3,3,0,0,0,1858.383,1163.636Zm0-72.433a2.995,2.995,0,1,0,2.995-2.995A3,3,0,0,0,1858.383,1091.2Zm-45.747,10.348a2.995,2.995,0,1,0,2.995-3A3,3,0,0,0,1812.636,1101.551Zm-183.005,41.39a3,3,0,1,0,2.995-2.995A3,3,0,0,0,1629.631,1142.941Zm0,10.348a3,3,0,1,0,2.995-3A3,3,0,0,0,1629.631,1153.289Zm0,10.347a3,3,0,1,0,2.995-2.995A3,3,0,0,0,1629.631,1163.636Zm0-41.39a3,3,0,1,0,2.995-3A3,3,0,0,0,1629.631,1122.246Zm0,51.738a3,3,0,1,0,2.995-3A3,3,0,0,0,1629.631,1173.984Zm0-41.391a3,3,0,1,0,2.995-2.995A3,3,0,0,0,1629.631,1132.593Zm0,72.433a3,3,0,1,0,2.995-2.995A3,3,0,0,0,1629.631,1205.026Zm0,20.695a3,3,0,1,0,2.995-2.995A3,3,0,0,0,1629.631,1225.721Zm0-10.347a3,3,0,1,0,2.995-2.995A3,3,0,0,0,1629.631,1215.374Zm0,20.695a3,3,0,1,0,2.995-2.995A3,3,0,0,0,1629.631,1236.069Zm0-51.738a3,3,0,1,0,2.995-2.995A2.995,2.995,0,0,0,1629.631,1184.331Zm0-72.433a3,3,0,1,0,2.995-2.995A3,3,0,0,0,1629.631,1111.9Zm0,82.781a3,3,0,1,0,2.995-3A3,3,0,0,0,1629.631,1194.679Zm-11.437,51.738a3,3,0,1,0,3-3A3,3,0,0,0,1618.194,1246.417Zm0-10.348a3,3,0,1,0,3-2.995A3,3,0,0,0,1618.194,1236.069Zm0-20.695a3,3,0,1,0,3-2.995A3,3,0,0,0,1618.194,1215.374Zm0,10.347a3,3,0,1,0,3-2.995A3,3,0,0,0,1618.194,1225.721Zm0-20.695a3,3,0,1,0,3-2.995A3,3,0,0,0,1618.194,1205.026Zm0-10.347a3,3,0,1,0,3-3A3,3,0,0,0,1618.194,1194.679Zm0,62.085a3,3,0,1,0,3-2.995A3,3,0,0,0,1618.194,1256.764Zm11.437-155.213a3,3,0,1,0,2.995-3A3,3,0,0,0,1629.631,1101.551Zm0-20.7a3,3,0,1,0,2.995-2.995A3,3,0,0,0,1629.631,1080.855Zm0,10.348a3,3,0,1,0,2.995-2.995A3,3,0,0,0,1629.631,1091.2Zm0-20.695a3,3,0,1,0,2.995-3A3,3,0,0,0,1629.631,1070.508Zm-11.437,196.6a3,3,0,1,0,3-3A3,3,0,0,0,1618.194,1267.112Zm34.31-196.6a3,3,0,1,0,3-3A3,3,0,0,0,1652.5,1070.508Zm-11.436,93.128a2.995,2.995,0,1,0,2.995-2.995A3,3,0,0,0,1641.068,1163.636Zm0,41.39a2.995,2.995,0,1,0,2.995-2.995A3,3,0,0,0,1641.068,1205.026Zm0,10.348a2.995,2.995,0,1,0,2.995-2.995A3,3,0,0,0,1641.068,1215.374Zm0-20.7a2.995,2.995,0,1,0,2.995-3A3,3,0,0,0,1641.068,1194.679Zm0-20.695a2.995,2.995,0,1,0,2.995-3A3,3,0,0,0,1641.068,1173.984Zm0,10.347a2.995,2.995,0,1,0,2.995-2.995A2.995,2.995,0,0,0,1641.068,1184.331Zm0,41.39a2.995,2.995,0,1,0,2.995-2.995A3,3,0,0,0,1641.068,1225.721Zm-11.437,20.7a3,3,0,1,0,2.995-3A3,3,0,0,0,1629.631,1246.417Zm-11.437-62.086a3,3,0,1,0,3-2.995A2.995,2.995,0,0,0,1618.194,1184.331Zm22.874,51.738a2.995,2.995,0,1,0,2.995-2.995A3,3,0,0,0,1641.068,1236.069Zm-45.747-155.214a2.995,2.995,0,1,0,2.995-2.995A3,3,0,0,0,1595.321,1080.855Zm45.747,175.909a2.995,2.995,0,1,0,2.995-2.995A3,3,0,0,0,1641.068,1256.764Zm0,10.348a2.995,2.995,0,1,0,2.995-3A3,3,0,0,0,1641.068,1267.112Zm0-186.257a2.995,2.995,0,1,0,2.995-2.995A3,3,0,0,0,1641.068,1080.855Zm0-10.347a2.995,2.995,0,1,0,2.995-3A3,3,0,0,0,1641.068,1070.508Zm0,82.781a2.995,2.995,0,1,0,2.995-3A3,3,0,0,0,1641.068,1153.289Zm0-62.086a2.995,2.995,0,1,0,2.995-2.995A3,3,0,0,0,1641.068,1091.2Zm-11.437,165.561a3,3,0,1,0,2.995-2.995A3,3,0,0,0,1629.631,1256.764Zm0,10.348a3,3,0,1,0,2.995-3A3,3,0,0,0,1629.631,1267.112Zm11.437-124.171a2.995,2.995,0,1,0,2.995-2.995A3,3,0,0,0,1641.068,1142.941Zm0-10.348a2.995,2.995,0,1,0,2.995-2.995A3,3,0,0,0,1641.068,1132.593Zm0-20.7a2.995,2.995,0,1,0,2.995-2.995A3,3,0,0,0,1641.068,1111.9Zm0-10.347a2.995,2.995,0,1,0,2.995-3A3,3,0,0,0,1641.068,1101.551Zm0,20.695a2.995,2.995,0,1,0,2.995-3A3,3,0,0,0,1641.068,1122.246Zm-34.311,82.78a3,3,0,1,0,3-2.995A3,3,0,0,0,1606.757,1205.026Zm-11.436,62.086a2.995,2.995,0,1,0,2.995-3A3,3,0,0,0,1595.321,1267.112Zm0-20.7a2.995,2.995,0,1,0,2.995-3A3,3,0,0,0,1595.321,1246.417Zm0,10.347a2.995,2.995,0,1,0,2.995-2.995A3,3,0,0,0,1595.321,1256.764Zm0-20.7a2.995,2.995,0,1,0,2.995-2.995A3,3,0,0,0,1595.321,1236.069Zm0-31.043a2.995,2.995,0,1,0,2.995-2.995A3,3,0,0,0,1595.321,1205.026Zm0,10.348a2.995,2.995,0,1,0,2.995-2.995A3,3,0,0,0,1595.321,1215.374Zm0,10.347a2.995,2.995,0,1,0,2.995-2.995A3,3,0,0,0,1595.321,1225.721Zm11.436-124.17a3,3,0,1,0,3-3A3,3,0,0,0,1606.757,1101.551Zm0,10.347a3,3,0,1,0,3-2.995A3,3,0,0,0,1606.757,1111.9Zm0-41.39a3,3,0,1,0,3-3A3,3,0,0,0,1606.757,1070.508Zm0,20.695a3,3,0,1,0,3-2.995A3,3,0,0,0,1606.757,1091.2Zm0-10.348a3,3,0,1,0,3-2.995A3,3,0,0,0,1606.757,1080.855Zm0,41.391a3,3,0,1,0,3-3A3,3,0,0,0,1606.757,1122.246Zm-11.436,10.347a2.995,2.995,0,1,0,2.995-2.995A3,3,0,0,0,1595.321,1132.593Zm0-10.347a2.995,2.995,0,1,0,2.995-3A3,3,0,0,0,1595.321,1122.246Zm0-10.348a2.995,2.995,0,1,0,2.995-2.995A3,3,0,0,0,1595.321,1111.9Zm22.873,62.086a3,3,0,1,0,3-3A3,3,0,0,0,1618.194,1173.984Zm-22.873-82.781a2.995,2.995,0,1,0,2.995-2.995A3,3,0,0,0,1595.321,1091.2Zm0,93.128a2.995,2.995,0,1,0,2.995-2.995A2.994,2.994,0,0,0,1595.321,1184.331Zm0,10.348a2.995,2.995,0,1,0,2.995-3A3,3,0,0,0,1595.321,1194.679Zm0-20.695a2.995,2.995,0,1,0,2.995-3A3,3,0,0,0,1595.321,1173.984Zm0-20.7a2.995,2.995,0,1,0,2.995-3A3,3,0,0,0,1595.321,1153.289Zm0,10.347a2.995,2.995,0,1,0,2.995-2.995A3,3,0,0,0,1595.321,1163.636Zm0-20.695a2.995,2.995,0,1,0,2.995-2.995A3,3,0,0,0,1595.321,1142.941Zm0-41.39a2.995,2.995,0,1,0,2.995-3A3,3,0,0,0,1595.321,1101.551Zm22.873-10.348a3,3,0,1,0,3-2.995A3,3,0,0,0,1618.194,1091.2Zm0,10.348a3,3,0,1,0,3-3A3,3,0,0,0,1618.194,1101.551Zm0-20.7a3,3,0,1,0,3-2.995A3,3,0,0,0,1618.194,1080.855Zm-11.437,186.257a3,3,0,1,0,3-3A3,3,0,0,0,1606.757,1267.112Zm0-10.348a3,3,0,1,0,3-2.995A3,3,0,0,0,1606.757,1256.764Zm11.437-144.866a3,3,0,1,0,3-2.995A3,3,0,0,0,1618.194,1111.9Zm0-41.39a3,3,0,1,0,3-3A3,3,0,0,0,1618.194,1070.508Zm0,51.738a3,3,0,1,0,3-3A3,3,0,0,0,1618.194,1122.246Zm0,41.39a3,3,0,1,0,3-2.995A3,3,0,0,0,1618.194,1163.636Zm0-10.347a3,3,0,1,0,3-3A3,3,0,0,0,1618.194,1153.289Zm0-20.7a3,3,0,1,0,3-2.995A3,3,0,0,0,1618.194,1132.593Zm0,10.348a3,3,0,1,0,3-2.995A3,3,0,0,0,1618.194,1142.941Zm-11.437-10.348a3,3,0,1,0,3-2.995A3,3,0,0,0,1606.757,1132.593Zm0,41.391a3,3,0,1,0,3-3A3,3,0,0,0,1606.757,1173.984Zm0-10.348a3,3,0,1,0,3-2.995A3,3,0,0,0,1606.757,1163.636Zm0-20.695a3,3,0,1,0,3-2.995A3,3,0,0,0,1606.757,1142.941Zm0,10.348a3,3,0,1,0,3-3A3,3,0,0,0,1606.757,1153.289Zm0,31.042a3,3,0,1,0,3-2.995A2.995,2.995,0,0,0,1606.757,1184.331Zm0,62.086a3,3,0,1,0,3-3A3,3,0,0,0,1606.757,1246.417Zm0-10.348a3,3,0,1,0,3-2.995A3,3,0,0,0,1606.757,1236.069Zm0-41.39a3,3,0,1,0,3-3A3,3,0,0,0,1606.757,1194.679Zm0,31.042a3,3,0,1,0,3-2.995A3,3,0,0,0,1606.757,1225.721Zm0-10.347a3,3,0,1,0,3-2.995A3,3,0,0,0,1606.757,1215.374Zm45.747-134.519a3,3,0,1,0,3-2.995A3,3,0,0,0,1652.5,1080.855Zm-11.436,165.562a2.995,2.995,0,1,0,2.995-3A3,3,0,0,0,1641.068,1246.417Zm45.747-134.519a3,3,0,1,0,3-2.995A3,3,0,0,0,1686.815,1111.9Zm0,31.043a3,3,0,1,0,3-2.995A3,3,0,0,0,1686.815,1142.941Zm0,20.695a3,3,0,1,0,3-2.995A3,3,0,0,0,1686.815,1163.636Zm0-41.39a3,3,0,1,0,3-3A3,3,0,0,0,1686.815,1122.246Zm0,51.738a3,3,0,1,0,3-3A3,3,0,0,0,1686.815,1173.984Zm0-41.391a3,3,0,1,0,3-2.995A3,3,0,0,0,1686.815,1132.593Zm0,20.7a3,3,0,1,0,3-3A3,3,0,0,0,1686.815,1153.289Zm0,62.085a3,3,0,1,0,3-2.995A3,3,0,0,0,1686.815,1215.374Zm0,10.347a3,3,0,1,0,3-2.995A3,3,0,0,0,1686.815,1225.721Zm0-31.042a3,3,0,1,0,3-3A3,3,0,0,0,1686.815,1194.679Zm0-10.348a3,3,0,1,0,3-2.995A2.995,2.995,0,0,0,1686.815,1184.331Zm0,20.695a3,3,0,1,0,3-2.995A3,3,0,0,0,1686.815,1205.026Zm0-134.518a3,3,0,1,0,3-3A3,3,0,0,0,1686.815,1070.508Zm-11.437,165.561a3,3,0,1,0,2.995-2.995A3,3,0,0,0,1675.378,1236.069Zm0,10.348a3,3,0,1,0,2.995-3A3,3,0,0,0,1675.378,1246.417Zm11.437-144.866a3,3,0,1,0,3-3A3,3,0,0,0,1686.815,1101.551Zm-11.437,103.475a3,3,0,1,0,2.995-2.995A3,3,0,0,0,1675.378,1205.026Zm0,10.348a3,3,0,1,0,2.995-2.995A3,3,0,0,0,1675.378,1215.374Zm0,10.347a3,3,0,1,0,2.995-2.995A3,3,0,0,0,1675.378,1225.721Zm11.437-144.866a3,3,0,1,0,3-2.995A3,3,0,0,0,1686.815,1080.855Zm0,10.348a3,3,0,1,0,3-2.995A3,3,0,0,0,1686.815,1091.2Zm0,144.866a3,3,0,1,0,3-2.995A3,3,0,0,0,1686.815,1236.069ZM1652.5,1091.2a3,3,0,1,0,3-2.995A3,3,0,0,0,1652.5,1091.2Zm22.874,165.561a3,3,0,1,0,2.995-2.995A3,3,0,0,0,1675.378,1256.764Zm-205.862-175.909a3,3,0,1,0,2.995-2.995A3,3,0,0,0,1469.516,1080.855Zm0,41.391a3,3,0,1,0,2.995-3A3,3,0,0,0,1469.516,1122.246Zm0,10.347a3,3,0,1,0,2.995-2.995A3,3,0,0,0,1469.516,1132.593Zm0,20.7a3,3,0,1,0,2.995-3A3,3,0,0,0,1469.516,1153.289Zm0,31.042a3,3,0,1,0,2.995-2.995A2.995,2.995,0,0,0,1469.516,1184.331Zm0-20.7a3,3,0,1,0,2.995-2.995A3,3,0,0,0,1469.516,1163.636Zm0,10.348a3,3,0,1,0,2.995-3A3,3,0,0,0,1469.516,1173.984Zm0-31.043a3,3,0,1,0,2.995-2.995A3,3,0,0,0,1469.516,1142.941Zm0-72.433a3,3,0,1,0,2.995-3A3,3,0,0,0,1469.516,1070.508Zm205.862,124.171a3,3,0,1,0,2.995-3A3,3,0,0,0,1675.378,1194.679ZM1469.516,1091.2a3,3,0,1,0,2.995-2.995A3,3,0,0,0,1469.516,1091.2Zm0,10.348a3,3,0,1,0,2.995-3A3,3,0,0,0,1469.516,1101.551Zm0,10.347a3,3,0,1,0,2.995-2.995A3,3,0,0,0,1469.516,1111.9Zm0,155.214a3,3,0,1,0,2.995-3A3,3,0,0,0,1469.516,1267.112Zm11.437-196.6a2.995,2.995,0,1,0,2.995-3A3,3,0,0,0,1480.953,1070.508Zm-11.437,124.171a3,3,0,1,0,2.995-3A3,3,0,0,0,1469.516,1194.679Zm217.3,72.433a3,3,0,1,0,3-3A3,3,0,0,0,1686.815,1267.112Zm-217.3-10.348a3,3,0,1,0,2.995-2.995A3,3,0,0,0,1469.516,1256.764Zm217.3,0a3,3,0,1,0,3-2.995A3,3,0,0,0,1686.815,1256.764Zm0-10.347a3,3,0,1,0,3-3A3,3,0,0,0,1686.815,1246.417Zm-217.3,0a3,3,0,1,0,2.995-3A3,3,0,0,0,1469.516,1246.417Zm0-31.043a3,3,0,1,0,2.995-2.995A3,3,0,0,0,1469.516,1215.374Zm0-10.348a3,3,0,1,0,2.995-2.995A3,3,0,0,0,1469.516,1205.026Zm0,20.695a3,3,0,1,0,2.995-2.995A3,3,0,0,0,1469.516,1225.721Zm0,10.348a3,3,0,1,0,2.995-2.995A3,3,0,0,0,1469.516,1236.069Zm205.862,31.043a3,3,0,1,0,2.995-3A3,3,0,0,0,1675.378,1267.112Zm-22.874-10.348a3,3,0,1,0,3-2.995A3,3,0,0,0,1652.5,1256.764Zm0,10.348a3,3,0,1,0,3-3A3,3,0,0,0,1652.5,1267.112Zm0-20.7a3,3,0,1,0,3-3A3,3,0,0,0,1652.5,1246.417Zm11.437-175.909a3,3,0,1,0,3-3A3,3,0,0,0,1663.941,1070.508ZM1652.5,1215.374a3,3,0,1,0,3-2.995A3,3,0,0,0,1652.5,1215.374Zm0,20.695a3,3,0,1,0,3-2.995A3,3,0,0,0,1652.5,1236.069Zm0-10.348a3,3,0,1,0,3-2.995A3,3,0,0,0,1652.5,1225.721Zm11.437-93.128a3,3,0,1,0,3-2.995A3,3,0,0,0,1663.941,1132.593Zm0-20.7a3,3,0,1,0,3-2.995A3,3,0,0,0,1663.941,1111.9Zm0-20.695a3,3,0,1,0,3-2.995A3,3,0,0,0,1663.941,1091.2Zm0-10.348a3,3,0,1,0,3-2.995A3,3,0,0,0,1663.941,1080.855Zm0,20.7a3,3,0,1,0,3-3A3,3,0,0,0,1663.941,1101.551Zm0,20.695a3,3,0,1,0,3-3A3,3,0,0,0,1663.941,1122.246Zm-11.437,10.347a3,3,0,1,0,3-2.995A3,3,0,0,0,1652.5,1132.593Zm0-10.347a3,3,0,1,0,3-3A3,3,0,0,0,1652.5,1122.246Zm22.874,62.085a3,3,0,1,0,2.995-2.995A2.994,2.994,0,0,0,1675.378,1184.331ZM1652.5,1111.9a3,3,0,1,0,3-2.995A3,3,0,0,0,1652.5,1111.9Zm0,31.043a3,3,0,1,0,3-2.995A3,3,0,0,0,1652.5,1142.941Zm0,62.085a3,3,0,1,0,3-2.995A3,3,0,0,0,1652.5,1205.026Zm0-10.347a3,3,0,1,0,3-3A3,3,0,0,0,1652.5,1194.679Zm0-10.348a3,3,0,1,0,3-2.995A3,3,0,0,0,1652.5,1184.331Zm0-31.042a3,3,0,1,0,3-3A3,3,0,0,0,1652.5,1153.289Zm0,10.347a3,3,0,1,0,3-2.995A3,3,0,0,0,1652.5,1163.636Zm0,10.348a3,3,0,1,0,3-3A3,3,0,0,0,1652.5,1173.984Zm0-72.433a3,3,0,1,0,3-3A3,3,0,0,0,1652.5,1101.551Zm22.874,20.695a3,3,0,1,0,2.995-3A3,3,0,0,0,1675.378,1122.246Zm0-31.043a3,3,0,1,0,2.995-2.995A3,3,0,0,0,1675.378,1091.2Zm0,20.695a3,3,0,1,0,2.995-2.995A3,3,0,0,0,1675.378,1111.9Zm-11.437,155.214a3,3,0,1,0,3-3A3,3,0,0,0,1663.941,1267.112Zm11.437-196.6a3,3,0,1,0,2.995-3A3,3,0,0,0,1675.378,1070.508Zm0,10.347a3,3,0,1,0,2.995-2.995A3,3,0,0,0,1675.378,1080.855Zm0,20.7a3,3,0,1,0,2.995-3A3,3,0,0,0,1675.378,1101.551Zm0,62.085a3,3,0,1,0,2.995-2.995A3,3,0,0,0,1675.378,1163.636Zm0,10.348a3,3,0,1,0,2.995-3A3,3,0,0,0,1675.378,1173.984Zm-11.437-31.043a3,3,0,1,0,3-2.995A3,3,0,0,0,1663.941,1142.941Zm11.437,0a3,3,0,1,0,2.995-2.995A3,3,0,0,0,1675.378,1142.941Zm0-10.348a3,3,0,1,0,2.995-2.995A3,3,0,0,0,1675.378,1132.593Zm0,20.7a3,3,0,1,0,2.995-3A3,3,0,0,0,1675.378,1153.289Zm-11.437,31.042a3,3,0,1,0,3-2.995A2.995,2.995,0,0,0,1663.941,1184.331Zm0,10.348a3,3,0,1,0,3-3A3,3,0,0,0,1663.941,1194.679Zm0-20.695a3,3,0,1,0,3-3A3,3,0,0,0,1663.941,1173.984Zm0-10.348a3,3,0,1,0,3-2.995A3,3,0,0,0,1663.941,1163.636Zm0-10.347a3,3,0,1,0,3-3A3,3,0,0,0,1663.941,1153.289Zm0,62.085a3,3,0,1,0,3-2.995A3,3,0,0,0,1663.941,1215.374Zm0,31.043a3,3,0,1,0,3-3A3,3,0,0,0,1663.941,1246.417Zm0-10.348a3,3,0,1,0,3-2.995A3,3,0,0,0,1663.941,1236.069Zm0,20.7a3,3,0,1,0,3-2.995A3,3,0,0,0,1663.941,1256.764Zm0-51.738a3,3,0,1,0,3-2.995A3,3,0,0,0,1663.941,1205.026Zm0,20.695a3,3,0,1,0,3-2.995A3,3,0,0,0,1663.941,1225.721ZM1503.826,1111.9a3,3,0,1,0,3-2.995A3,3,0,0,0,1503.826,1111.9Zm34.311-41.39a2.995,2.995,0,1,0,2.995-3A3,3,0,0,0,1538.137,1070.508Zm-22.874,62.085a3,3,0,1,0,3-2.995A3,3,0,0,0,1515.263,1132.593Zm0,20.7a3,3,0,1,0,3-3A3,3,0,0,0,1515.263,1153.289Zm0-41.391a3,3,0,1,0,3-2.995A3,3,0,0,0,1515.263,1111.9Zm0,113.823a3,3,0,1,0,3-2.995A3,3,0,0,0,1515.263,1225.721Zm0-62.085a3,3,0,1,0,3-2.995A3,3,0,0,0,1515.263,1163.636Zm0,10.348a3,3,0,1,0,3-3A3,3,0,0,0,1515.263,1173.984Zm0,41.39a3,3,0,1,0,3-2.995A3,3,0,0,0,1515.263,1215.374Zm0-113.823a3,3,0,1,0,3-3A3,3,0,0,0,1515.263,1101.551Zm0,103.475a3,3,0,1,0,3-2.995A3,3,0,0,0,1515.263,1205.026Zm0-20.695a3,3,0,1,0,3-2.995A2.995,2.995,0,0,0,1515.263,1184.331Zm0,10.348a3,3,0,1,0,3-3A3,3,0,0,0,1515.263,1194.679Zm0-72.433a3,3,0,1,0,3-3A3,3,0,0,0,1515.263,1122.246Zm-11.437,113.823a3,3,0,1,0,3-2.995A3,3,0,0,0,1503.826,1236.069Zm0-20.695a3,3,0,1,0,3-2.995A3,3,0,0,0,1503.826,1215.374Zm0,10.347a3,3,0,1,0,3-2.995A3,3,0,0,0,1503.826,1225.721Zm0-20.695a3,3,0,1,0,3-2.995A3,3,0,0,0,1503.826,1205.026Zm0-10.347a3,3,0,1,0,3-3A3,3,0,0,0,1503.826,1194.679Zm11.437-113.824a3,3,0,1,0,3-2.995A3,3,0,0,0,1515.263,1080.855Zm0,10.348a3,3,0,1,0,3-2.995A3,3,0,0,0,1515.263,1091.2Zm0-20.695a3,3,0,1,0,3-3A3,3,0,0,0,1515.263,1070.508Zm-11.437,186.256a3,3,0,1,0,3-2.995A3,3,0,0,0,1503.826,1256.764Zm0,10.348a3,3,0,1,0,3-3A3,3,0,0,0,1503.826,1267.112Zm0-20.7a3,3,0,1,0,3-3A3,3,0,0,0,1503.826,1246.417Zm22.874-175.909a3,3,0,1,0,2.995-3A3,3,0,0,0,1526.7,1070.508Zm0,144.866a3,3,0,1,0,2.995-2.995A3,3,0,0,0,1526.7,1215.374Zm0-10.348a3,3,0,1,0,2.995-2.995A3,3,0,0,0,1526.7,1205.026Zm0-20.695a3,3,0,1,0,2.995-2.995A2.995,2.995,0,0,0,1526.7,1184.331Zm0,10.348a3,3,0,1,0,2.995-3A3,3,0,0,0,1526.7,1194.679Zm0-31.043a3,3,0,1,0,2.995-2.995A3,3,0,0,0,1526.7,1163.636Zm0,10.348a3,3,0,1,0,2.995-3A3,3,0,0,0,1526.7,1173.984Zm0,93.128a3,3,0,1,0,2.995-3A3,3,0,0,0,1526.7,1267.112Zm0-10.348a3,3,0,1,0,2.995-2.995A3,3,0,0,0,1526.7,1256.764Zm0-103.475a3,3,0,1,0,2.995-3A3,3,0,0,0,1526.7,1153.289Zm0,82.78a3,3,0,1,0,2.995-2.995A3,3,0,0,0,1526.7,1236.069Zm0-10.348a3,3,0,1,0,2.995-2.995A3,3,0,0,0,1526.7,1225.721Zm0,20.7a3,3,0,1,0,2.995-3A3,3,0,0,0,1526.7,1246.417Zm0-144.866a3,3,0,1,0,2.995-3A3,3,0,0,0,1526.7,1101.551Zm0-20.7a3,3,0,1,0,2.995-2.995A3,3,0,0,0,1526.7,1080.855Zm0,62.086a3,3,0,1,0,2.995-2.995A3,3,0,0,0,1526.7,1142.941Zm-22.874,41.39a3,3,0,1,0,3-2.995A2.995,2.995,0,0,0,1503.826,1184.331Zm11.437,62.086a3,3,0,1,0,3-3A3,3,0,0,0,1515.263,1246.417Zm0,10.347a3,3,0,1,0,3-2.995A3,3,0,0,0,1515.263,1256.764Zm0,10.348a3,3,0,1,0,3-3A3,3,0,0,0,1515.263,1267.112ZM1526.7,1091.2a3,3,0,1,0,2.995-2.995A3,3,0,0,0,1526.7,1091.2Zm0,41.39a3,3,0,1,0,2.995-2.995A3,3,0,0,0,1526.7,1132.593Zm0-10.347a3,3,0,1,0,2.995-3A3,3,0,0,0,1526.7,1122.246Zm0-10.348a3,3,0,1,0,2.995-2.995A3,3,0,0,0,1526.7,1111.9Zm-11.437,124.171a3,3,0,1,0,3-2.995A3,3,0,0,0,1515.263,1236.069Zm0-93.128a3,3,0,1,0,3-2.995A3,3,0,0,0,1515.263,1142.941Zm-34.31,93.128a2.995,2.995,0,1,0,2.995-2.995A3,3,0,0,0,1480.953,1236.069Zm0,10.348a2.995,2.995,0,1,0,2.995-3A3,3,0,0,0,1480.953,1246.417Zm0,10.347a2.995,2.995,0,1,0,2.995-2.995A3,3,0,0,0,1480.953,1256.764Zm22.873-82.78a3,3,0,1,0,3-3A3,3,0,0,0,1503.826,1173.984Zm-22.873,41.39a2.995,2.995,0,1,0,2.995-2.995A3,3,0,0,0,1480.953,1215.374Zm0,10.347a2.995,2.995,0,1,0,2.995-2.995A3,3,0,0,0,1480.953,1225.721Zm11.436-124.17a3,3,0,1,0,3-3A3,3,0,0,0,1492.389,1101.551Zm-11.436,103.475a2.995,2.995,0,1,0,2.995-2.995A3,3,0,0,0,1480.953,1205.026Zm11.436-93.128a3,3,0,1,0,3-2.995A3,3,0,0,0,1492.389,1111.9Zm0-41.39a3,3,0,1,0,3-3A3,3,0,0,0,1492.389,1070.508Zm0,20.695a3,3,0,1,0,3-2.995A3,3,0,0,0,1492.389,1091.2Zm0-10.348a3,3,0,1,0,3-2.995A3,3,0,0,0,1492.389,1080.855Zm-11.436,186.257a2.995,2.995,0,1,0,2.995-3A3,3,0,0,0,1480.953,1267.112Zm0-144.866a2.995,2.995,0,1,0,2.995-3A3,3,0,0,0,1480.953,1122.246Zm0-10.348a2.995,2.995,0,1,0,2.995-2.995A3,3,0,0,0,1480.953,1111.9Zm0-20.695a2.995,2.995,0,1,0,2.995-2.995A3,3,0,0,0,1480.953,1091.2Zm0,10.348a2.995,2.995,0,1,0,2.995-3A3,3,0,0,0,1480.953,1101.551Zm0,31.042a2.995,2.995,0,1,0,2.995-2.995A3,3,0,0,0,1480.953,1132.593Zm0,41.391a2.995,2.995,0,1,0,2.995-3A3,3,0,0,0,1480.953,1173.984Zm0,20.695a2.995,2.995,0,1,0,2.995-3A3,3,0,0,0,1480.953,1194.679Zm0-10.348a2.995,2.995,0,1,0,2.995-2.995A2.994,2.994,0,0,0,1480.953,1184.331Zm0-20.7a2.995,2.995,0,1,0,2.995-2.995A3,3,0,0,0,1480.953,1163.636Zm0-10.347a2.995,2.995,0,1,0,2.995-3A3,3,0,0,0,1480.953,1153.289Zm0-10.348a2.995,2.995,0,1,0,2.995-2.995A3,3,0,0,0,1480.953,1142.941Zm11.436-20.7a3,3,0,1,0,3-3A3,3,0,0,0,1492.389,1122.246Zm11.437-41.391a3,3,0,1,0,3-2.995A3,3,0,0,0,1503.826,1080.855Zm0,10.348a3,3,0,1,0,3-2.995A3,3,0,0,0,1503.826,1091.2Zm0,10.348a3,3,0,1,0,3-3A3,3,0,0,0,1503.826,1101.551Zm0-31.043a3,3,0,1,0,3-3A3,3,0,0,0,1503.826,1070.508Zm-22.873,10.347a2.995,2.995,0,1,0,2.995-2.995A3,3,0,0,0,1480.953,1080.855Zm11.436,175.909a3,3,0,1,0,3-2.995A3,3,0,0,0,1492.389,1256.764Zm0,10.348a3,3,0,1,0,3-3A3,3,0,0,0,1492.389,1267.112Zm11.437-103.476a3,3,0,1,0,3-2.995A3,3,0,0,0,1503.826,1163.636Zm0-10.347a3,3,0,1,0,3-3A3,3,0,0,0,1503.826,1153.289Zm0-31.043a3,3,0,1,0,3-3A3,3,0,0,0,1503.826,1122.246Zm0,10.347a3,3,0,1,0,3-2.995A3,3,0,0,0,1503.826,1132.593Zm0,10.348a3,3,0,1,0,3-2.995A3,3,0,0,0,1503.826,1142.941Zm-11.437,51.738a3,3,0,1,0,3-3A3,3,0,0,0,1492.389,1194.679Zm0-31.043a3,3,0,1,0,3-2.995A3,3,0,0,0,1492.389,1163.636Zm0,10.348a3,3,0,1,0,3-3A3,3,0,0,0,1492.389,1173.984Zm0,10.347a3,3,0,1,0,3-2.995A2.995,2.995,0,0,0,1492.389,1184.331Zm0-31.042a3,3,0,1,0,3-3A3,3,0,0,0,1492.389,1153.289Zm0-10.348a3,3,0,1,0,3-2.995A3,3,0,0,0,1492.389,1142.941Zm0,72.433a3,3,0,1,0,3-2.995A3,3,0,0,0,1492.389,1215.374Zm0-82.781a3,3,0,1,0,3-2.995A3,3,0,0,0,1492.389,1132.593Zm0,93.128a3,3,0,1,0,3-2.995A3,3,0,0,0,1492.389,1225.721Zm0,10.348a3,3,0,1,0,3-2.995A3,3,0,0,0,1492.389,1236.069Zm0,10.348a3,3,0,1,0,3-3A3,3,0,0,0,1492.389,1246.417Zm0-41.391a3,3,0,1,0,3-2.995A3,3,0,0,0,1492.389,1205.026Zm80.058-82.78a3,3,0,1,0,2.995-3A3,3,0,0,0,1572.447,1122.246Zm0,20.7a3,3,0,1,0,2.995-2.995A3,3,0,0,0,1572.447,1142.941Zm0,10.348a3,3,0,1,0,2.995-3A3,3,0,0,0,1572.447,1153.289Zm0-20.7a3,3,0,1,0,2.995-2.995A3,3,0,0,0,1572.447,1132.593Zm0,31.043a3,3,0,1,0,2.995-2.995A3,3,0,0,0,1572.447,1163.636Zm22.874-93.128a2.995,2.995,0,1,0,2.995-3A3,3,0,0,0,1595.321,1070.508Zm-22.874,41.39a3,3,0,1,0,2.995-2.995A3,3,0,0,0,1572.447,1111.9Zm0,93.128a3,3,0,1,0,2.995-2.995A3,3,0,0,0,1572.447,1205.026Zm0-31.042a3,3,0,1,0,2.995-3A3,3,0,0,0,1572.447,1173.984Zm0,41.39a3,3,0,1,0,2.995-2.995A3,3,0,0,0,1572.447,1215.374Zm0-113.823a3,3,0,1,0,2.995-3A3,3,0,0,0,1572.447,1101.551Zm0,82.78a3,3,0,1,0,2.995-2.995A2.994,2.994,0,0,0,1572.447,1184.331Zm0,10.348a3,3,0,1,0,2.995-3A3,3,0,0,0,1572.447,1194.679Zm-11.437,10.347a3,3,0,1,0,3-2.995A3,3,0,0,0,1561.01,1205.026Zm11.437-113.823a3,3,0,1,0,2.995-2.995A3,3,0,0,0,1572.447,1091.2Zm-11.437,124.171a3,3,0,1,0,3-2.995A3,3,0,0,0,1561.01,1215.374Zm0,10.347a3,3,0,1,0,3-2.995A3,3,0,0,0,1561.01,1225.721Zm11.437,0a3,3,0,1,0,2.995-2.995A3,3,0,0,0,1572.447,1225.721Zm-11.437-31.042a3,3,0,1,0,3-3A3,3,0,0,0,1561.01,1194.679Zm0,41.39a3,3,0,1,0,3-2.995A3,3,0,0,0,1561.01,1236.069Zm11.437-165.561a3,3,0,1,0,2.995-3A3,3,0,0,0,1572.447,1070.508Zm0,10.347a3,3,0,1,0,2.995-2.995A3,3,0,0,0,1572.447,1080.855Zm-11.437,165.562a3,3,0,1,0,3-3A3,3,0,0,0,1561.01,1246.417Zm0,20.7a3,3,0,1,0,3-3A3,3,0,0,0,1561.01,1267.112Zm0-82.781a3,3,0,1,0,3-2.995A2.995,2.995,0,0,0,1561.01,1184.331Zm0,72.433a3,3,0,1,0,3-2.995A3,3,0,0,0,1561.01,1256.764Zm22.874-72.433a3,3,0,1,0,2.995-2.995A2.994,2.994,0,0,0,1583.884,1184.331Zm0,31.043a3,3,0,1,0,2.995-2.995A3,3,0,0,0,1583.884,1215.374Zm0-10.348a3,3,0,1,0,2.995-2.995A3,3,0,0,0,1583.884,1205.026Zm0-10.347a3,3,0,1,0,2.995-3A3,3,0,0,0,1583.884,1194.679Zm0-20.695a3,3,0,1,0,2.995-3A3,3,0,0,0,1583.884,1173.984Zm0-10.348a3,3,0,1,0,2.995-2.995A3,3,0,0,0,1583.884,1163.636Zm0,103.476a3,3,0,1,0,2.995-3A3,3,0,0,0,1583.884,1267.112Zm0-41.391a3,3,0,1,0,2.995-2.995A3,3,0,0,0,1583.884,1225.721Zm0-72.432a3,3,0,1,0,2.995-3A3,3,0,0,0,1583.884,1153.289Zm0,103.475a3,3,0,1,0,2.995-2.995A3,3,0,0,0,1583.884,1256.764Zm0-20.7a3,3,0,1,0,2.995-2.995A3,3,0,0,0,1583.884,1236.069Zm0,10.348a3,3,0,1,0,2.995-3A3,3,0,0,0,1583.884,1246.417Zm0-155.214a3,3,0,1,0,2.995-2.995A3,3,0,0,0,1583.884,1091.2Zm0-10.348a3,3,0,1,0,2.995-2.995A3,3,0,0,0,1583.884,1080.855Zm-11.437,186.257a3,3,0,1,0,2.995-3A3,3,0,0,0,1572.447,1267.112Zm11.437-196.6a3,3,0,1,0,2.995-3A3,3,0,0,0,1583.884,1070.508Zm0,72.433a3,3,0,1,0,2.995-2.995A3,3,0,0,0,1583.884,1142.941Zm-11.437,113.823a3,3,0,1,0,2.995-2.995A3,3,0,0,0,1572.447,1256.764Zm0-10.347a3,3,0,1,0,2.995-3A3,3,0,0,0,1572.447,1246.417Zm11.437-113.824a3,3,0,1,0,2.995-2.995A3,3,0,0,0,1583.884,1132.593Zm0-10.347a3,3,0,1,0,2.995-3A3,3,0,0,0,1583.884,1122.246Zm0-10.348a3,3,0,1,0,2.995-2.995A3,3,0,0,0,1583.884,1111.9Zm0-10.347a3,3,0,1,0,2.995-3A3,3,0,0,0,1583.884,1101.551Zm-11.437,134.518a3,3,0,1,0,2.995-2.995A3,3,0,0,0,1572.447,1236.069Zm-22.874-41.39a3,3,0,1,0,3-3A3,3,0,0,0,1549.573,1194.679Zm-11.436,51.738a2.995,2.995,0,1,0,2.995-3A3,3,0,0,0,1538.137,1246.417Zm0,20.7a2.995,2.995,0,1,0,2.995-3A3,3,0,0,0,1538.137,1267.112Zm0-31.043a2.995,2.995,0,1,0,2.995-2.995A3,3,0,0,0,1538.137,1236.069Zm0,20.7a2.995,2.995,0,1,0,2.995-2.995A3,3,0,0,0,1538.137,1256.764Zm0-41.39a2.995,2.995,0,1,0,2.995-2.995A3,3,0,0,0,1538.137,1215.374Zm0,10.347a2.995,2.995,0,1,0,2.995-2.995A3,3,0,0,0,1538.137,1225.721Zm11.436-155.213a3,3,0,1,0,3-3A3,3,0,0,0,1549.573,1070.508Zm0,31.043a3,3,0,1,0,3-3A3,3,0,0,0,1549.573,1101.551Zm0,10.347a3,3,0,1,0,3-2.995A3,3,0,0,0,1549.573,1111.9Zm-11.436,93.128a2.995,2.995,0,1,0,2.995-2.995A3,3,0,0,0,1538.137,1205.026Zm11.436-124.171a3,3,0,1,0,3-2.995A3,3,0,0,0,1549.573,1080.855Zm0,10.348a3,3,0,1,0,3-2.995A3,3,0,0,0,1549.573,1091.2Zm0,31.043a3,3,0,1,0,3-3A3,3,0,0,0,1549.573,1122.246Zm-11.436-10.348a2.995,2.995,0,1,0,2.995-2.995A3,3,0,0,0,1538.137,1111.9Zm0,82.781a2.995,2.995,0,1,0,2.995-3A3,3,0,0,0,1538.137,1194.679Zm0-72.433a2.995,2.995,0,1,0,2.995-3A3,3,0,0,0,1538.137,1122.246Zm0-31.043a2.995,2.995,0,1,0,2.995-2.995A3,3,0,0,0,1538.137,1091.2Zm22.873,82.781a3,3,0,1,0,3-3A3,3,0,0,0,1561.01,1173.984Zm-22.873-41.391a2.995,2.995,0,1,0,2.995-2.995A3,3,0,0,0,1538.137,1132.593Zm0-31.042a2.995,2.995,0,1,0,2.995-3A3,3,0,0,0,1538.137,1101.551Zm0,82.78a2.995,2.995,0,1,0,2.995-2.995A2.995,2.995,0,0,0,1538.137,1184.331Zm0-10.347a2.995,2.995,0,1,0,2.995-3A3,3,0,0,0,1538.137,1173.984Zm0-10.348a2.995,2.995,0,1,0,2.995-2.995A3,3,0,0,0,1538.137,1163.636Zm0-20.695a2.995,2.995,0,1,0,2.995-2.995A3,3,0,0,0,1538.137,1142.941Zm0,10.348a2.995,2.995,0,1,0,2.995-3A3,3,0,0,0,1538.137,1153.289Zm11.436-10.348a3,3,0,1,0,3-2.995A3,3,0,0,0,1549.573,1142.941Zm11.437-41.39a3,3,0,1,0,3-3A3,3,0,0,0,1561.01,1101.551Zm0-10.348a3,3,0,1,0,3-2.995A3,3,0,0,0,1561.01,1091.2Zm0,20.695a3,3,0,1,0,3-2.995A3,3,0,0,0,1561.01,1111.9Zm0-41.39a3,3,0,1,0,3-3A3,3,0,0,0,1561.01,1070.508Zm0,51.738a3,3,0,1,0,3-3A3,3,0,0,0,1561.01,1122.246Zm0-41.391a3,3,0,1,0,3-2.995A3,3,0,0,0,1561.01,1080.855Zm0,72.434a3,3,0,1,0,3-3A3,3,0,0,0,1561.01,1153.289Zm-11.437-20.7a3,3,0,1,0,3-2.995A3,3,0,0,0,1549.573,1132.593Zm11.437,31.043a3,3,0,1,0,3-2.995A3,3,0,0,0,1561.01,1163.636Zm0-20.695a3,3,0,1,0,3-2.995A3,3,0,0,0,1561.01,1142.941Zm0-10.348a3,3,0,1,0,3-2.995A3,3,0,0,0,1561.01,1132.593Zm-11.437,134.519a3,3,0,1,0,3-3A3,3,0,0,0,1549.573,1267.112Zm0-113.823a3,3,0,1,0,3-3A3,3,0,0,0,1549.573,1153.289Zm0,31.042a3,3,0,1,0,3-2.995A3,3,0,0,0,1549.573,1184.331Zm-11.436-103.476a2.995,2.995,0,1,0,2.995-2.995A3,3,0,0,0,1538.137,1080.855Zm11.436,175.909a3,3,0,1,0,3-2.995A3,3,0,0,0,1549.573,1256.764Zm0-93.128a3,3,0,1,0,3-2.995A3,3,0,0,0,1549.573,1163.636Zm0,10.348a3,3,0,1,0,3-3A3,3,0,0,0,1549.573,1173.984Zm0,31.042a3,3,0,1,0,3-2.995A3,3,0,0,0,1549.573,1205.026Zm0,10.348a3,3,0,1,0,3-2.995A3,3,0,0,0,1549.573,1215.374Zm0,20.695a3,3,0,1,0,3-2.995A3,3,0,0,0,1549.573,1236.069Zm0,10.348a3,3,0,1,0,3-3A3,3,0,0,0,1549.573,1246.417Zm0-20.7a3,3,0,1,0,3-2.995A3,3,0,0,0,1549.573,1225.721Zm-240.188-31.042a3,3,0,1,0,2.995-3A3,3,0,0,0,1309.385,1194.679Zm0-10.348a3,3,0,1,0,2.995-2.995A2.994,2.994,0,0,0,1309.385,1184.331Zm0-10.347a3,3,0,1,0,2.995-3A3,3,0,0,0,1309.385,1173.984Zm0,31.042a3,3,0,1,0,2.995-2.995A3,3,0,0,0,1309.385,1205.026Zm0,20.695a3,3,0,1,0,2.995-2.995A3,3,0,0,0,1309.385,1225.721Zm0-10.347a3,3,0,1,0,2.995-2.995A3,3,0,0,0,1309.385,1215.374Zm0-93.128a3,3,0,1,0,2.995-3A3,3,0,0,0,1309.385,1122.246Zm0,10.347a3,3,0,1,0,2.995-2.995A3,3,0,0,0,1309.385,1132.593Zm0,20.7a3,3,0,1,0,2.995-3A3,3,0,0,0,1309.385,1153.289Zm0-10.348a3,3,0,1,0,2.995-2.995A3,3,0,0,0,1309.385,1142.941Zm0,20.695a3,3,0,1,0,2.995-2.995A3,3,0,0,0,1309.385,1163.636Zm11.437-20.695a3,3,0,1,0,2.995-2.995A3,3,0,0,0,1320.822,1142.941Zm0-20.7a3,3,0,1,0,2.995-3A3,3,0,0,0,1320.822,1122.246Zm0-31.043a3,3,0,1,0,2.995-2.995A3,3,0,0,0,1320.822,1091.2Zm0,10.348a3,3,0,1,0,2.995-3A3,3,0,0,0,1320.822,1101.551Zm0,31.042a3,3,0,1,0,2.995-2.995A3,3,0,0,0,1320.822,1132.593Zm-11.437-20.7a3,3,0,1,0,2.995-2.995A3,3,0,0,0,1309.385,1111.9Zm0,124.171a3,3,0,1,0,2.995-2.995A3,3,0,0,0,1309.385,1236.069Zm0,10.348a3,3,0,1,0,2.995-3A3,3,0,0,0,1309.385,1246.417Zm0,10.347a3,3,0,1,0,2.995-2.995A3,3,0,0,0,1309.385,1256.764Zm0,10.348a3,3,0,1,0,2.995-3A3,3,0,0,0,1309.385,1267.112Zm11.437-186.257a3,3,0,1,0,2.995-2.995A3,3,0,0,0,1320.822,1080.855Zm0-10.347a3,3,0,1,0,2.995-3A3,3,0,0,0,1320.822,1070.508Zm0,41.39a3,3,0,1,0,2.995-2.995A3,3,0,0,0,1320.822,1111.9Zm-22.874,51.738a3,3,0,1,0,2.995-2.995A3,3,0,0,0,1297.948,1163.636Zm0-10.347a3,3,0,1,0,2.995-3A3,3,0,0,0,1297.948,1153.289Zm0-10.348a3,3,0,1,0,2.995-2.995A3,3,0,0,0,1297.948,1142.941Zm0,31.043a3,3,0,1,0,2.995-3A3,3,0,0,0,1297.948,1173.984Zm0,10.347a3,3,0,1,0,2.995-2.995A2.994,2.994,0,0,0,1297.948,1184.331Zm0-51.738a3,3,0,1,0,2.995-2.995A3,3,0,0,0,1297.948,1132.593Zm0-41.39a3,3,0,1,0,2.995-2.995A3,3,0,0,0,1297.948,1091.2Zm0-10.348a3,3,0,1,0,2.995-2.995A3,3,0,0,0,1297.948,1080.855Zm0,113.824a3,3,0,1,0,2.995-3A3,3,0,0,0,1297.948,1194.679Zm0-93.128a3,3,0,1,0,2.995-3A3,3,0,0,0,1297.948,1101.551Zm0,20.695a3,3,0,1,0,2.995-3A3,3,0,0,0,1297.948,1122.246Zm0-10.348a3,3,0,1,0,2.995-2.995A3,3,0,0,0,1297.948,1111.9Zm0,155.214a3,3,0,1,0,2.995-3A3,3,0,0,0,1297.948,1267.112Zm11.437-165.561a3,3,0,1,0,2.995-3A3,3,0,0,0,1309.385,1101.551Zm0-31.043a3,3,0,1,0,2.995-3A3,3,0,0,0,1309.385,1070.508Zm-11.437,186.256a3,3,0,1,0,2.995-2.995A3,3,0,0,0,1297.948,1256.764Zm11.437-165.561a3,3,0,1,0,2.995-2.995A3,3,0,0,0,1309.385,1091.2Zm0-10.348a3,3,0,1,0,2.995-2.995A3,3,0,0,0,1309.385,1080.855Zm-11.437,144.866a3,3,0,1,0,2.995-2.995A3,3,0,0,0,1297.948,1225.721Zm22.874-72.432a3,3,0,1,0,2.995-3A3,3,0,0,0,1320.822,1153.289Zm-22.874,51.737a3,3,0,1,0,2.995-2.995A3,3,0,0,0,1297.948,1205.026Zm0,31.043a3,3,0,1,0,2.995-2.995A3,3,0,0,0,1297.948,1236.069Zm0-165.561a3,3,0,1,0,2.995-3A3,3,0,0,0,1297.948,1070.508Zm0,175.909a3,3,0,1,0,2.995-3A3,3,0,0,0,1297.948,1246.417Zm22.874,0a3,3,0,1,0,2.995-3A3,3,0,0,0,1320.822,1246.417Zm22.873-144.866a3,3,0,1,0,3-3A3,3,0,0,0,1343.695,1101.551Zm0-10.348a3,3,0,1,0,3-2.995A3,3,0,0,0,1343.695,1091.2Zm-22.873,72.433a3,3,0,1,0,2.995-2.995A3,3,0,0,0,1320.822,1163.636Zm22.873-51.738a3,3,0,1,0,3-2.995A3,3,0,0,0,1343.695,1111.9Zm-11.436,103.476a2.995,2.995,0,1,0,2.995-2.995A3,3,0,0,0,1332.259,1215.374Zm11.436-144.866a3,3,0,1,0,3-3A3,3,0,0,0,1343.695,1070.508Zm-11.436,175.909a2.995,2.995,0,1,0,2.995-3A3,3,0,0,0,1332.259,1246.417Zm0-20.7a2.995,2.995,0,1,0,2.995-2.995A3,3,0,0,0,1332.259,1225.721Zm0,41.391a2.995,2.995,0,1,0,2.995-3A3,3,0,0,0,1332.259,1267.112Zm0-31.043a2.995,2.995,0,1,0,2.995-2.995A3,3,0,0,0,1332.259,1236.069Zm11.436-103.476a3,3,0,1,0,3-2.995A3,3,0,0,0,1343.695,1132.593Zm-11.436,124.171a2.995,2.995,0,1,0,2.995-2.995A3,3,0,0,0,1332.259,1256.764Zm11.436-134.518a3,3,0,1,0,3-3A3,3,0,0,0,1343.695,1122.246Zm0,82.78a3,3,0,1,0,3-2.995A3,3,0,0,0,1343.695,1205.026Zm0,10.348a3,3,0,1,0,3-2.995A3,3,0,0,0,1343.695,1215.374Zm0,20.695a3,3,0,1,0,3-2.995A3,3,0,0,0,1343.695,1236.069Zm0-10.348a3,3,0,1,0,3-2.995A3,3,0,0,0,1343.695,1225.721Zm0,20.7a3,3,0,1,0,3-3A3,3,0,0,0,1343.695,1246.417Zm0,10.347a3,3,0,1,0,3-2.995A3,3,0,0,0,1343.695,1256.764Zm0-103.475a3,3,0,1,0,3-3A3,3,0,0,0,1343.695,1153.289Zm0,10.347a3,3,0,1,0,3-2.995A3,3,0,0,0,1343.695,1163.636Zm0,31.043a3,3,0,1,0,3-3A3,3,0,0,0,1343.695,1194.679Zm0-51.738a3,3,0,1,0,3-2.995A3,3,0,0,0,1343.695,1142.941Zm0,41.39a3,3,0,1,0,3-2.995A2.995,2.995,0,0,0,1343.695,1184.331Zm0-10.347a3,3,0,1,0,3-3A3,3,0,0,0,1343.695,1173.984Zm0-93.129a3,3,0,1,0,3-2.995A3,3,0,0,0,1343.695,1080.855Zm-22.873,175.909a3,3,0,1,0,2.995-2.995A3,3,0,0,0,1320.822,1256.764Zm0-31.043a3,3,0,1,0,2.995-2.995A3,3,0,0,0,1320.822,1225.721Zm11.437-144.866a2.995,2.995,0,1,0,2.995-2.995A3,3,0,0,0,1332.259,1080.855Zm-45.748,186.257a3,3,0,1,0,3-3A3,3,0,0,0,1286.511,1267.112Zm34.311,0a3,3,0,1,0,2.995-3A3,3,0,0,0,1320.822,1267.112Zm11.437-196.6a2.995,2.995,0,1,0,2.995-3A3,3,0,0,0,1332.259,1070.508Zm-11.437,165.561a3,3,0,1,0,2.995-2.995A3,3,0,0,0,1320.822,1236.069Zm0-20.695a3,3,0,1,0,2.995-2.995A3,3,0,0,0,1320.822,1215.374Zm0-31.043a3,3,0,1,0,2.995-2.995A2.994,2.994,0,0,0,1320.822,1184.331Zm0-10.347a3,3,0,1,0,2.995-3A3,3,0,0,0,1320.822,1173.984Zm0,20.695a3,3,0,1,0,2.995-3A3,3,0,0,0,1320.822,1194.679Zm0,10.347a3,3,0,1,0,2.995-2.995A3,3,0,0,0,1320.822,1205.026Zm11.437-93.128a2.995,2.995,0,1,0,2.995-2.995A3,3,0,0,0,1332.259,1111.9Zm0,51.738a2.995,2.995,0,1,0,2.995-2.995A3,3,0,0,0,1332.259,1163.636Zm0-10.347a2.995,2.995,0,1,0,2.995-3A3,3,0,0,0,1332.259,1153.289Zm0,20.7a2.995,2.995,0,1,0,2.995-3A3,3,0,0,0,1332.259,1173.984Zm0,20.695a2.995,2.995,0,1,0,2.995-3A3,3,0,0,0,1332.259,1194.679Zm0-10.348a2.995,2.995,0,1,0,2.995-2.995A2.994,2.994,0,0,0,1332.259,1184.331Zm0-51.738a2.995,2.995,0,1,0,2.995-2.995A3,3,0,0,0,1332.259,1132.593Zm0,72.433a2.995,2.995,0,1,0,2.995-2.995A3,3,0,0,0,1332.259,1205.026Zm0-62.085a2.995,2.995,0,1,0,2.995-2.995A3,3,0,0,0,1332.259,1142.941Zm0-41.39a2.995,2.995,0,1,0,2.995-3A3,3,0,0,0,1332.259,1101.551Zm0-10.348a2.995,2.995,0,1,0,2.995-2.995A3,3,0,0,0,1332.259,1091.2Zm0,31.043a2.995,2.995,0,1,0,2.995-3A3,3,0,0,0,1332.259,1122.246Zm-34.311,93.128a3,3,0,1,0,2.995-2.995A3,3,0,0,0,1297.948,1215.374Zm-45.747-20.7a3,3,0,1,0,2.995-3A3,3,0,0,0,1252.2,1194.679Zm0-31.043a3,3,0,1,0,2.995-2.995A3,3,0,0,0,1252.2,1163.636Zm0-62.085a3,3,0,1,0,2.995-3A3,3,0,0,0,1252.2,1101.551Zm0,82.78a3,3,0,1,0,2.995-2.995A2.994,2.994,0,0,0,1252.2,1184.331Zm0,31.043a3,3,0,1,0,2.995-2.995A3,3,0,0,0,1252.2,1215.374Zm0-10.348a3,3,0,1,0,2.995-2.995A3,3,0,0,0,1252.2,1205.026Zm0-51.737a3,3,0,1,0,2.995-3A3,3,0,0,0,1252.2,1153.289Zm0-41.391a3,3,0,1,0,2.995-2.995A3,3,0,0,0,1252.2,1111.9Zm0,10.348a3,3,0,1,0,2.995-3A3,3,0,0,0,1252.2,1122.246Zm0,103.475a3,3,0,1,0,2.995-2.995A3,3,0,0,0,1252.2,1225.721Zm0-82.78a3,3,0,1,0,2.995-2.995A3,3,0,0,0,1252.2,1142.941Zm0-10.348a3,3,0,1,0,2.995-2.995A3,3,0,0,0,1252.2,1132.593Zm0,41.391a3,3,0,1,0,2.995-3A3,3,0,0,0,1252.2,1173.984Zm11.437-62.086a3,3,0,1,0,3-2.995A3,3,0,0,0,1263.638,1111.9Zm0-10.347a3,3,0,1,0,3-3A3,3,0,0,0,1263.638,1101.551Zm0-10.348a3,3,0,1,0,3-2.995A3,3,0,0,0,1263.638,1091.2Zm0,31.043a3,3,0,1,0,3-3A3,3,0,0,0,1263.638,1122.246Zm0,10.347a3,3,0,1,0,3-2.995A3,3,0,0,0,1263.638,1132.593Zm0,10.348a3,3,0,1,0,3-2.995A3,3,0,0,0,1263.638,1142.941ZM1252.2,1256.764a3,3,0,1,0,2.995-2.995A3,3,0,0,0,1252.2,1256.764Zm0-20.7a3,3,0,1,0,2.995-2.995A3,3,0,0,0,1252.2,1236.069Zm11.437-155.214a3,3,0,1,0,3-2.995A3,3,0,0,0,1263.638,1080.855Zm0-10.347a3,3,0,1,0,3-3A3,3,0,0,0,1263.638,1070.508Zm-11.437,196.6a3,3,0,1,0,2.995-3A3,3,0,0,0,1252.2,1267.112Zm0-20.7a3,3,0,1,0,2.995-3A3,3,0,0,0,1252.2,1246.417Zm-11.437-72.433a3,3,0,1,0,3-3A3,3,0,0,0,1240.764,1173.984Zm0-41.391a3,3,0,1,0,3-2.995A3,3,0,0,0,1240.764,1132.593Zm11.437-41.39a3,3,0,1,0,2.995-2.995A3,3,0,0,0,1252.2,1091.2Zm-11.437,31.043a3,3,0,1,0,3-3A3,3,0,0,0,1240.764,1122.246Zm0,41.39a3,3,0,1,0,3-2.995A3,3,0,0,0,1240.764,1163.636Zm0-10.347a3,3,0,1,0,3-3A3,3,0,0,0,1240.764,1153.289Zm0-10.348a3,3,0,1,0,3-2.995A3,3,0,0,0,1240.764,1142.941Zm102.931,124.171a3,3,0,1,0,3-3A3,3,0,0,0,1343.695,1267.112Zm-96.94-196.6a3,3,0,1,0-2.995,2.995A3,3,0,0,0,1246.755,1070.508Zm-5.991,20.695a3,3,0,1,0,3-2.995A3,3,0,0,0,1240.764,1091.2Zm0,10.348a3,3,0,1,0,3-3A3,3,0,0,0,1240.764,1101.551Zm0-20.7a3,3,0,1,0,3-2.995A3,3,0,0,0,1240.764,1080.855Zm0,31.043a3,3,0,1,0,3-2.995A3,3,0,0,0,1240.764,1111.9Zm0,144.866a3,3,0,1,0,3-2.995A3,3,0,0,0,1240.764,1256.764Zm0-10.347a3,3,0,1,0,3-3A3,3,0,0,0,1240.764,1246.417Zm0-62.086a3,3,0,1,0,3-2.995A2.995,2.995,0,0,0,1240.764,1184.331Zm11.437-113.823a3,3,0,1,0,2.995-3A3,3,0,0,0,1252.2,1070.508Zm0,10.347a3,3,0,1,0,2.995-2.995A3,3,0,0,0,1252.2,1080.855Zm-11.437,186.257a3,3,0,1,0,3-3A3,3,0,0,0,1240.764,1267.112Zm0-62.086a3,3,0,1,0,3-2.995A3,3,0,0,0,1240.764,1205.026Zm0-10.347a3,3,0,1,0,3-3A3,3,0,0,0,1240.764,1194.679Zm0,20.7a3,3,0,1,0,3-2.995A3,3,0,0,0,1240.764,1215.374Zm0,20.695a3,3,0,1,0,3-2.995A3,3,0,0,0,1240.764,1236.069Zm0-10.348a3,3,0,1,0,3-2.995A3,3,0,0,0,1240.764,1225.721Zm22.874-41.39a3,3,0,1,0,3-2.995A2.995,2.995,0,0,0,1263.638,1184.331Zm22.873-51.738a3,3,0,1,0,3-2.995A3,3,0,0,0,1286.511,1132.593Zm-11.436,72.433a2.995,2.995,0,1,0,2.995-2.995A3,3,0,0,0,1275.075,1205.026Zm11.436-134.518a3,3,0,1,0,3-3A3,3,0,0,0,1286.511,1070.508Zm0,41.39a3,3,0,1,0,3-2.995A3,3,0,0,0,1286.511,1111.9Zm-11.436,155.214a2.995,2.995,0,1,0,2.995-3A3,3,0,0,0,1275.075,1267.112Zm11.436-144.866a3,3,0,1,0,3-3A3,3,0,0,0,1286.511,1122.246Zm0-41.391a3,3,0,1,0,3-2.995A3,3,0,0,0,1286.511,1080.855Zm-11.436,134.519a2.995,2.995,0,1,0,2.995-2.995A3,3,0,0,0,1275.075,1215.374Zm0,10.347a2.995,2.995,0,1,0,2.995-2.995A3,3,0,0,0,1275.075,1225.721Zm0,31.043a2.995,2.995,0,1,0,2.995-2.995A3,3,0,0,0,1275.075,1256.764Zm0-10.347a2.995,2.995,0,1,0,2.995-3A3,3,0,0,0,1275.075,1246.417Zm0-10.348a2.995,2.995,0,1,0,2.995-2.995A3,3,0,0,0,1275.075,1236.069Zm-11.437-82.78a3,3,0,1,0,3-3A3,3,0,0,0,1263.638,1153.289Zm22.873,51.737a3,3,0,1,0,3-2.995A3,3,0,0,0,1286.511,1205.026Zm0,10.348a3,3,0,1,0,3-2.995A3,3,0,0,0,1286.511,1215.374Zm0,10.347a3,3,0,1,0,3-2.995A3,3,0,0,0,1286.511,1225.721Zm0,20.7a3,3,0,1,0,3-3A3,3,0,0,0,1286.511,1246.417Zm0-10.348a3,3,0,1,0,3-2.995A3,3,0,0,0,1286.511,1236.069Zm0-41.39a3,3,0,1,0,3-3A3,3,0,0,0,1286.511,1194.679Zm0-41.39a3,3,0,1,0,3-3A3,3,0,0,0,1286.511,1153.289Zm0,10.347a3,3,0,1,0,3-2.995A3,3,0,0,0,1286.511,1163.636Zm0,20.7a3,3,0,1,0,3-2.995A3,3,0,0,0,1286.511,1184.331Zm0-41.39a3,3,0,1,0,3-2.995A3,3,0,0,0,1286.511,1142.941Zm0,31.043a3,3,0,1,0,3-3A3,3,0,0,0,1286.511,1173.984Zm0-72.433a3,3,0,1,0,3-3A3,3,0,0,0,1286.511,1101.551Zm-22.873,134.518a3,3,0,1,0,3-2.995A3,3,0,0,0,1263.638,1236.069Zm0-10.348a3,3,0,1,0,3-2.995A3,3,0,0,0,1263.638,1225.721Zm0,20.7a3,3,0,1,0,3-3A3,3,0,0,0,1263.638,1246.417Zm0-31.043a3,3,0,1,0,3-2.995A3,3,0,0,0,1263.638,1215.374Zm0,41.39a3,3,0,1,0,3-2.995A3,3,0,0,0,1263.638,1256.764Zm11.437-186.256a2.995,2.995,0,1,0,2.995-3A3,3,0,0,0,1275.075,1070.508Zm-11.437,196.6a3,3,0,1,0,3-3A3,3,0,0,0,1263.638,1267.112Zm0-93.128a3,3,0,1,0,3-3A3,3,0,0,0,1263.638,1173.984Zm0-10.348a3,3,0,1,0,3-2.995A3,3,0,0,0,1263.638,1163.636Zm22.873,93.128a3,3,0,1,0,3-2.995A3,3,0,0,0,1286.511,1256.764Zm-22.873-51.738a3,3,0,1,0,3-2.995A3,3,0,0,0,1263.638,1205.026Zm0-10.347a3,3,0,1,0,3-3A3,3,0,0,0,1263.638,1194.679Zm11.437-82.781a2.995,2.995,0,1,0,2.995-2.995A3,3,0,0,0,1275.075,1111.9Zm0,41.391a2.995,2.995,0,1,0,2.995-3A3,3,0,0,0,1275.075,1153.289Zm0,10.347a2.995,2.995,0,1,0,2.995-2.995A3,3,0,0,0,1275.075,1163.636Zm0-20.695a2.995,2.995,0,1,0,2.995-2.995A3,3,0,0,0,1275.075,1142.941Zm0,31.043a2.995,2.995,0,1,0,2.995-3A3,3,0,0,0,1275.075,1173.984Zm0,10.347a2.995,2.995,0,1,0,2.995-2.995A2.995,2.995,0,0,0,1275.075,1184.331Zm0-62.085a2.995,2.995,0,1,0,2.995-3A3,3,0,0,0,1275.075,1122.246Zm0,10.347a2.995,2.995,0,1,0,2.995-2.995A3,3,0,0,0,1275.075,1132.593Zm0-31.042a2.995,2.995,0,1,0,2.995-3A3,3,0,0,0,1275.075,1101.551Zm0-10.348a2.995,2.995,0,1,0,2.995-2.995A3,3,0,0,0,1275.075,1091.2Zm0,103.476a2.995,2.995,0,1,0,2.995-3A3,3,0,0,0,1275.075,1194.679Zm0-113.824a2.995,2.995,0,1,0,2.995-2.995A3,3,0,0,0,1275.075,1080.855Zm11.436,10.348a3,3,0,1,0,3-2.995A3,3,0,0,0,1286.511,1091.2Zm137.242,124.171a3,3,0,1,0,2.995-2.995A3,3,0,0,0,1423.753,1215.374Zm0-10.348a3,3,0,1,0,2.995-2.995A3,3,0,0,0,1423.753,1205.026Zm0-10.347a3,3,0,1,0,2.995-3A3,3,0,0,0,1423.753,1194.679Zm0,31.042a3,3,0,1,0,2.995-2.995A3,3,0,0,0,1423.753,1225.721Zm0-41.39a3,3,0,1,0,2.995-2.995A2.994,2.994,0,0,0,1423.753,1184.331Zm0,62.086a3,3,0,1,0,2.995-3A3,3,0,0,0,1423.753,1246.417Zm0-10.348a3,3,0,1,0,2.995-2.995A3,3,0,0,0,1423.753,1236.069Zm0-62.085a3,3,0,1,0,2.995-3A3,3,0,0,0,1423.753,1173.984Zm0-41.391a3,3,0,1,0,2.995-2.995A3,3,0,0,0,1423.753,1132.593Zm0,10.348a3,3,0,1,0,2.995-2.995A3,3,0,0,0,1423.753,1142.941Zm0,20.695a3,3,0,1,0,2.995-2.995A3,3,0,0,0,1423.753,1163.636Zm0-10.347a3,3,0,1,0,2.995-3A3,3,0,0,0,1423.753,1153.289Zm11.437-41.391a3,3,0,1,0,3-2.995A3,3,0,0,0,1435.19,1111.9Zm0,31.043a3,3,0,1,0,3-2.995A3,3,0,0,0,1435.19,1142.941Zm0-10.348a3,3,0,1,0,3-2.995A3,3,0,0,0,1435.19,1132.593Zm-11.437-10.347a3,3,0,1,0,2.995-3A3,3,0,0,0,1423.753,1122.246Zm11.437,0a3,3,0,1,0,3-3A3,3,0,0,0,1435.19,1122.246Zm0,31.043a3,3,0,1,0,3-3A3,3,0,0,0,1435.19,1153.289Zm0,10.347a3,3,0,1,0,3-2.995A3,3,0,0,0,1435.19,1163.636Zm0-82.781a3,3,0,1,0,3-2.995A3,3,0,0,0,1435.19,1080.855Zm-11.437,186.257a3,3,0,1,0,2.995-3A3,3,0,0,0,1423.753,1267.112Zm11.437-196.6a3,3,0,1,0,3-3A3,3,0,0,0,1435.19,1070.508Zm0,20.695a3,3,0,1,0,3-2.995A3,3,0,0,0,1435.19,1091.2Zm0,10.348a3,3,0,1,0,3-3A3,3,0,0,0,1435.19,1101.551Zm-11.437,155.213a3,3,0,1,0,2.995-2.995A3,3,0,0,0,1423.753,1256.764Zm-11.437-31.043a3,3,0,1,0,2.995-2.995A3,3,0,0,0,1412.316,1225.721Zm0-72.432a3,3,0,1,0,2.995-3A3,3,0,0,0,1412.316,1153.289Zm0,10.347a3,3,0,1,0,2.995-2.995A3,3,0,0,0,1412.316,1163.636Zm0-20.695a3,3,0,1,0,2.995-2.995A3,3,0,0,0,1412.316,1142.941Zm0-10.348a3,3,0,1,0,2.995-2.995A3,3,0,0,0,1412.316,1132.593Zm0,51.738a3,3,0,1,0,2.995-2.995A2.994,2.994,0,0,0,1412.316,1184.331Zm-57.184-113.823a3,3,0,1,0,3-3A3,3,0,0,0,1355.132,1070.508Zm57.184,51.738a3,3,0,1,0,2.995-3A3,3,0,0,0,1412.316,1122.246Zm0-31.043a3,3,0,1,0,2.995-2.995A3,3,0,0,0,1412.316,1091.2Zm0,103.476a3,3,0,1,0,2.995-3A3,3,0,0,0,1412.316,1194.679Zm11.437-82.781a3,3,0,1,0,2.995-2.995A3,3,0,0,0,1423.753,1111.9Zm-11.437,0a3,3,0,1,0,2.995-2.995A3,3,0,0,0,1412.316,1111.9Zm0-10.347a3,3,0,1,0,2.995-3A3,3,0,0,0,1412.316,1101.551Zm0-20.7a3,3,0,1,0,2.995-2.995A3,3,0,0,0,1412.316,1080.855Zm0,124.171a3,3,0,1,0,2.995-2.995A3,3,0,0,0,1412.316,1205.026Zm11.437-124.171a3,3,0,1,0,2.995-2.995A3,3,0,0,0,1423.753,1080.855Zm0-10.347a3,3,0,1,0,2.995-3A3,3,0,0,0,1423.753,1070.508Zm0,20.695a3,3,0,1,0,2.995-2.995A3,3,0,0,0,1423.753,1091.2Zm-11.437-20.695a3,3,0,1,0,2.995-3A3,3,0,0,0,1412.316,1070.508Zm0,196.6a3,3,0,1,0,2.995-3A3,3,0,0,0,1412.316,1267.112Zm22.874-93.128a3,3,0,1,0,3-3A3,3,0,0,0,1435.19,1173.984Zm-22.874,41.39a3,3,0,1,0,2.995-2.995A3,3,0,0,0,1412.316,1215.374Zm0,31.043a3,3,0,1,0,2.995-3A3,3,0,0,0,1412.316,1246.417Zm0-10.348a3,3,0,1,0,2.995-2.995A3,3,0,0,0,1412.316,1236.069Zm0,20.7a3,3,0,1,0,2.995-2.995A3,3,0,0,0,1412.316,1256.764Zm11.437-155.213a3,3,0,1,0,2.995-3A3,3,0,0,0,1423.753,1101.551Zm34.31-10.348a3,3,0,1,0,3-2.995A3,3,0,0,0,1458.063,1091.2Zm0,20.695a3,3,0,1,0,3-2.995A3,3,0,0,0,1458.063,1111.9Zm-22.873,72.433a3,3,0,1,0,3-2.995A2.995,2.995,0,0,0,1435.19,1184.331Zm22.873-62.085a3,3,0,1,0,3-3A3,3,0,0,0,1458.063,1122.246Zm0,20.7a3,3,0,1,0,3-2.995A3,3,0,0,0,1458.063,1142.941Zm0-10.348a3,3,0,1,0,3-2.995A3,3,0,0,0,1458.063,1132.593Zm-11.437,124.171a3,3,0,1,0,3-2.995A3,3,0,0,0,1446.626,1256.764Zm0-10.347a3,3,0,1,0,3-3A3,3,0,0,0,1446.626,1246.417Zm11.437-93.128a3,3,0,1,0,3-3A3,3,0,0,0,1458.063,1153.289Zm-11.437,82.78a3,3,0,1,0,3-2.995A3,3,0,0,0,1446.626,1236.069Zm11.437-155.214a3,3,0,1,0,3-2.995A3,3,0,0,0,1458.063,1080.855Zm0-10.347a3,3,0,1,0,3-3A3,3,0,0,0,1458.063,1070.508Zm-11.437,196.6a3,3,0,1,0,3-3A3,3,0,0,0,1446.626,1267.112Zm11.437-41.391a3,3,0,1,0,3-2.995A3,3,0,0,0,1458.063,1225.721Zm0,10.348a3,3,0,1,0,3-2.995A3,3,0,0,0,1458.063,1236.069Zm0,10.348a3,3,0,1,0,3-3A3,3,0,0,0,1458.063,1246.417Zm0,20.7a3,3,0,1,0,3-3A3,3,0,0,0,1458.063,1267.112Zm0-10.348a3,3,0,1,0,3-2.995A3,3,0,0,0,1458.063,1256.764Zm0-93.128a3,3,0,1,0,3-2.995A3,3,0,0,0,1458.063,1163.636Zm0,20.7a3,3,0,1,0,3-2.995A2.995,2.995,0,0,0,1458.063,1184.331Zm0-10.347a3,3,0,1,0,3-3A3,3,0,0,0,1458.063,1173.984Zm0,41.39a3,3,0,1,0,3-2.995A3,3,0,0,0,1458.063,1215.374Zm0-10.348a3,3,0,1,0,3-2.995A3,3,0,0,0,1458.063,1205.026Zm0-10.347a3,3,0,1,0,3-3A3,3,0,0,0,1458.063,1194.679Zm0-93.128a3,3,0,1,0,3-3A3,3,0,0,0,1458.063,1101.551Zm-11.437-31.043a3,3,0,1,0,3-3A3,3,0,0,0,1446.626,1070.508Zm-11.436,196.6a3,3,0,1,0,3-3A3,3,0,0,0,1435.19,1267.112Zm0-20.7a3,3,0,1,0,3-3A3,3,0,0,0,1435.19,1246.417Zm0,10.347a3,3,0,1,0,3-2.995A3,3,0,0,0,1435.19,1256.764Zm11.436-155.213a3,3,0,1,0,3-3A3,3,0,0,0,1446.626,1101.551Zm0-10.348a3,3,0,1,0,3-2.995A3,3,0,0,0,1446.626,1091.2Zm0-10.348a3,3,0,1,0,3-2.995A3,3,0,0,0,1446.626,1080.855Zm-11.436,155.214a3,3,0,1,0,3-2.995A3,3,0,0,0,1435.19,1236.069Zm0-31.043a3,3,0,1,0,3-2.995A3,3,0,0,0,1435.19,1205.026Zm0-10.347a3,3,0,1,0,3-3A3,3,0,0,0,1435.19,1194.679Zm0,20.7a3,3,0,1,0,3-2.995A3,3,0,0,0,1435.19,1215.374Zm0,10.347a3,3,0,1,0,3-2.995A3,3,0,0,0,1435.19,1225.721Zm11.436-82.78a3,3,0,1,0,3-2.995A3,3,0,0,0,1446.626,1142.941Zm0,51.738a3,3,0,1,0,3-3A3,3,0,0,0,1446.626,1194.679Zm0-10.348a3,3,0,1,0,3-2.995A3,3,0,0,0,1446.626,1184.331Zm0-10.347a3,3,0,1,0,3-3A3,3,0,0,0,1446.626,1173.984Zm0,41.39a3,3,0,1,0,3-2.995A3,3,0,0,0,1446.626,1215.374Zm0-10.348a3,3,0,1,0,3-2.995A3,3,0,0,0,1446.626,1205.026Zm0-82.78a3,3,0,1,0,3-3A3,3,0,0,0,1446.626,1122.246Zm0,10.347a3,3,0,1,0,3-2.995A3,3,0,0,0,1446.626,1132.593Zm0-20.7a3,3,0,1,0,3-2.995A3,3,0,0,0,1446.626,1111.9Zm0,51.738a3,3,0,1,0,3-2.995A3,3,0,0,0,1446.626,1163.636Zm0,62.085a3,3,0,1,0,3-2.995A3,3,0,0,0,1446.626,1225.721Zm0-72.432a3,3,0,1,0,3-3A3,3,0,0,0,1446.626,1153.289Zm-34.31,20.7a3,3,0,1,0,2.995-3A3,3,0,0,0,1412.316,1173.984Zm-45.747,41.39a3,3,0,1,0,2.995-2.995A3,3,0,0,0,1366.569,1215.374Zm0-10.348a3,3,0,1,0,2.995-2.995A3,3,0,0,0,1366.569,1205.026Zm0-20.695a3,3,0,1,0,2.995-2.995A2.995,2.995,0,0,0,1366.569,1184.331Zm0,10.348a3,3,0,1,0,2.995-3A3,3,0,0,0,1366.569,1194.679Zm0,41.39a3,3,0,1,0,2.995-2.995A3,3,0,0,0,1366.569,1236.069Zm0-10.348a3,3,0,1,0,2.995-2.995A3,3,0,0,0,1366.569,1225.721Zm11.437-62.085a2.995,2.995,0,1,0,2.995-2.995A3,3,0,0,0,1378.006,1163.636Zm-11.437-20.695a3,3,0,1,0,2.995-2.995A3,3,0,0,0,1366.569,1142.941Zm0-10.348a3,3,0,1,0,2.995-2.995A3,3,0,0,0,1366.569,1132.593Zm0,31.043a3,3,0,1,0,2.995-2.995A3,3,0,0,0,1366.569,1163.636Zm0,82.781a3,3,0,1,0,2.995-3A3,3,0,0,0,1366.569,1246.417Zm0-72.433a3,3,0,1,0,2.995-3A3,3,0,0,0,1366.569,1173.984Zm11.437-51.738a2.995,2.995,0,1,0,2.995-3A3,3,0,0,0,1378.006,1122.246Zm0-10.348A2.995,2.995,0,1,0,1381,1108.9,3,3,0,0,0,1378.006,1111.9Zm-11.437,10.348a3,3,0,1,0,2.995-3A3,3,0,0,0,1366.569,1122.246Zm0,134.518a3,3,0,1,0,2.995-2.995A3,3,0,0,0,1366.569,1256.764Zm11.437-103.475a2.995,2.995,0,1,0,2.995-3A3,3,0,0,0,1378.006,1153.289Zm0-10.348a2.995,2.995,0,1,0,2.995-2.995A3,3,0,0,0,1378.006,1142.941Zm0-10.348A2.995,2.995,0,1,0,1381,1129.6,3,3,0,0,0,1378.006,1132.593Zm-11.437,134.519a3,3,0,1,0,2.995-3A3,3,0,0,0,1366.569,1267.112Zm11.437-196.6a2.995,2.995,0,1,0,2.995-3A3,3,0,0,0,1378.006,1070.508Zm0,10.347a2.995,2.995,0,1,0,2.995-2.995A3,3,0,0,0,1378.006,1080.855Zm0,20.7a2.995,2.995,0,1,0,2.995-3A3,3,0,0,0,1378.006,1101.551Zm0-10.348a2.995,2.995,0,1,0,2.995-2.995A3,3,0,0,0,1378.006,1091.2Zm-11.437,62.086a3,3,0,1,0,2.995-3A3,3,0,0,0,1366.569,1153.289Zm-11.437,41.39a3,3,0,1,0,3-3A3,3,0,0,0,1355.132,1194.679Zm0-31.043a3,3,0,1,0,3-2.995A3,3,0,0,0,1355.132,1163.636Zm0-20.695a3,3,0,1,0,3-2.995A3,3,0,0,0,1355.132,1142.941Zm0,31.043a3,3,0,1,0,3-3A3,3,0,0,0,1355.132,1173.984Zm0-41.391a3,3,0,1,0,3-2.995A3,3,0,0,0,1355.132,1132.593Zm0,51.738a3,3,0,1,0,3-2.995A2.995,2.995,0,0,0,1355.132,1184.331Zm0-31.042a3,3,0,1,0,3-3A3,3,0,0,0,1355.132,1153.289Zm0-62.086a3,3,0,1,0,3-2.995A3,3,0,0,0,1355.132,1091.2Zm0-10.348a3,3,0,1,0,3-2.995A3,3,0,0,0,1355.132,1080.855Zm0,20.7a3,3,0,1,0,3-3A3,3,0,0,0,1355.132,1101.551Zm0,10.347a3,3,0,1,0,3-2.995A3,3,0,0,0,1355.132,1111.9Zm0,10.348a3,3,0,1,0,3-3A3,3,0,0,0,1355.132,1122.246Zm0,124.171a3,3,0,1,0,3-3A3,3,0,0,0,1355.132,1246.417Zm0,20.7a3,3,0,1,0,3-3A3,3,0,0,0,1355.132,1267.112Zm11.437-196.6a3,3,0,1,0,2.995-3A3,3,0,0,0,1366.569,1070.508Zm0,10.347a3,3,0,1,0,2.995-2.995A3,3,0,0,0,1366.569,1080.855Zm-11.437,124.171a3,3,0,1,0,3-2.995A3,3,0,0,0,1355.132,1205.026Zm11.437-113.823a3,3,0,1,0,2.995-2.995A3,3,0,0,0,1366.569,1091.2Zm0,10.348a3,3,0,1,0,2.995-3A3,3,0,0,0,1366.569,1101.551Zm-11.437,155.213a3,3,0,1,0,3-2.995A3,3,0,0,0,1355.132,1256.764Zm0-41.39a3,3,0,1,0,3-2.995A3,3,0,0,0,1355.132,1215.374Zm0,10.347a3,3,0,1,0,3-2.995A3,3,0,0,0,1355.132,1225.721Zm0,10.348a3,3,0,1,0,3-2.995A3,3,0,0,0,1355.132,1236.069Zm11.437-124.171a3,3,0,1,0,2.995-2.995A3,3,0,0,0,1366.569,1111.9Zm22.874,113.823a2.995,2.995,0,1,0,2.995-2.995A3,3,0,0,0,1389.443,1225.721Zm11.436-124.17a3,3,0,1,0,3-3A3,3,0,0,0,1400.879,1101.551Zm0-20.7a3,3,0,1,0,3-2.995A3,3,0,0,0,1400.879,1080.855Zm-22.873,93.129a2.995,2.995,0,1,0,2.995-3A3,3,0,0,0,1378.006,1173.984Zm22.873-82.781a3,3,0,1,0,3-2.995A3,3,0,0,0,1400.879,1091.2Zm0,41.39a3,3,0,1,0,3-2.995A3,3,0,0,0,1400.879,1132.593Zm0-10.347a3,3,0,1,0,3-3A3,3,0,0,0,1400.879,1122.246Zm0,20.7a3,3,0,1,0,3-2.995A3,3,0,0,0,1400.879,1142.941Zm-11.436,103.476a2.995,2.995,0,1,0,2.995-3A3,3,0,0,0,1389.443,1246.417Zm0-10.348a2.995,2.995,0,1,0,2.995-2.995A3,3,0,0,0,1389.443,1236.069Zm0,31.043a2.995,2.995,0,1,0,2.995-3A3,3,0,0,0,1389.443,1267.112Zm11.436-196.6a3,3,0,1,0,3-3A3,3,0,0,0,1400.879,1070.508Zm-11.436,186.256a2.995,2.995,0,1,0,2.995-2.995A3,3,0,0,0,1389.443,1256.764Zm11.436-82.78a3,3,0,1,0,3-3A3,3,0,0,0,1400.879,1173.984Zm0,62.085a3,3,0,1,0,3-2.995A3,3,0,0,0,1400.879,1236.069Zm0-10.348a3,3,0,1,0,3-2.995A3,3,0,0,0,1400.879,1225.721Zm0,31.043a3,3,0,1,0,3-2.995A3,3,0,0,0,1400.879,1256.764Zm0-10.347a3,3,0,1,0,3-3A3,3,0,0,0,1400.879,1246.417Zm0-31.043a3,3,0,1,0,3-2.995A3,3,0,0,0,1400.879,1215.374Zm0-62.085a3,3,0,1,0,3-3A3,3,0,0,0,1400.879,1153.289Zm0,113.823a3,3,0,1,0,3-3A3,3,0,0,0,1400.879,1267.112Zm0-103.476a3,3,0,1,0,3-2.995A3,3,0,0,0,1400.879,1163.636Zm0,20.7a3,3,0,1,0,3-2.995A2.995,2.995,0,0,0,1400.879,1184.331Zm0,20.695a3,3,0,1,0,3-2.995A3,3,0,0,0,1400.879,1205.026Zm0-10.347a3,3,0,1,0,3-3A3,3,0,0,0,1400.879,1194.679Zm0-82.781a3,3,0,1,0,3-2.995A3,3,0,0,0,1400.879,1111.9Zm-22.873,144.866a2.995,2.995,0,1,0,2.995-2.995A3,3,0,0,0,1378.006,1256.764Zm11.437-41.39a2.995,2.995,0,1,0,2.995-2.995A3,3,0,0,0,1389.443,1215.374Zm-11.437,31.043a2.995,2.995,0,1,0,2.995-3A3,3,0,0,0,1378.006,1246.417Zm11.437-175.909a2.995,2.995,0,1,0,2.995-3A3,3,0,0,0,1389.443,1070.508Zm-11.437,165.561a2.995,2.995,0,1,0,2.995-2.995A3,3,0,0,0,1378.006,1236.069Zm11.437-155.214a2.995,2.995,0,1,0,2.995-2.995A3,3,0,0,0,1389.443,1080.855Zm-11.437,186.257a2.995,2.995,0,1,0,2.995-3A3,3,0,0,0,1378.006,1267.112Zm0-72.433a2.995,2.995,0,1,0,2.995-3A3,3,0,0,0,1378.006,1194.679Zm0-10.348a2.995,2.995,0,1,0,2.995-2.995A2.995,2.995,0,0,0,1378.006,1184.331Zm0,31.043a2.995,2.995,0,1,0,2.995-2.995A3,3,0,0,0,1378.006,1215.374Zm0-10.348a2.995,2.995,0,1,0,2.995-2.995A3,3,0,0,0,1378.006,1205.026Zm0,20.695a2.995,2.995,0,1,0,2.995-2.995A3,3,0,0,0,1378.006,1225.721Zm11.437-134.518a2.995,2.995,0,1,0,2.995-2.995A3,3,0,0,0,1389.443,1091.2Zm0,72.433a2.995,2.995,0,1,0,2.995-2.995A3,3,0,0,0,1389.443,1163.636Zm0,20.7a2.995,2.995,0,1,0,2.995-2.995A2.995,2.995,0,0,0,1389.443,1184.331Zm0-10.347a2.995,2.995,0,1,0,2.995-3A3,3,0,0,0,1389.443,1173.984Zm0,20.695a2.995,2.995,0,1,0,2.995-3A3,3,0,0,0,1389.443,1194.679Zm0,10.347a2.995,2.995,0,1,0,2.995-2.995A3,3,0,0,0,1389.443,1205.026Zm0-51.737a2.995,2.995,0,1,0,2.995-3A3,3,0,0,0,1389.443,1153.289Zm0-31.043a2.995,2.995,0,1,0,2.995-3A3,3,0,0,0,1389.443,1122.246Zm0-20.695a2.995,2.995,0,1,0,2.995-3A3,3,0,0,0,1389.443,1101.551Zm0,10.347a2.995,2.995,0,1,0,2.995-2.995A3,3,0,0,0,1389.443,1111.9Zm0,31.043a2.995,2.995,0,1,0,2.995-2.995A3,3,0,0,0,1389.443,1142.941Zm0-10.348a2.995,2.995,0,1,0,2.995-2.995A3,3,0,0,0,1389.443,1132.593Z" transform="translate(-1240.764 -1067.513)" fill="#094c40"/>
</svg>
