<svg id="Group_6294" data-name="Group 6294" xmlns="http://www.w3.org/2000/svg" width="75.358" height="62.344" viewBox="0 0 75.358 62.344">
  <path id="Path_1858" data-name="Path 1858" d="M1863.222,434.972h-47.356a3.762,3.762,0,0,1-3.766-3.766v-10.84a3.762,3.762,0,0,1,3.766-3.766h47.356a3.761,3.761,0,0,1,3.766,3.766v10.84A3.761,3.761,0,0,1,1863.222,434.972Z" transform="translate(-1791.629 -416.6)" fill="#fff"/>
  <path id="Path_1859" data-name="Path 1859" d="M1739.6,431.714l-20.59,20.59a3.381,3.381,0,0,1-4.78,0l-8.22-8.221a3.382,3.382,0,0,1,0-4.779l20.59-20.59a3.382,3.382,0,0,1,4.781,0l8.219,8.221A3.381,3.381,0,0,1,1739.6,431.714Z" transform="translate(-1705.025 -417.51)" fill="#fff"/>
  <path id="Path_1860" data-name="Path 1860" d="M1708.966,646.7h47.356a3.761,3.761,0,0,1,3.766,3.766v10.821a3.761,3.761,0,0,1-3.766,3.766h-47.356a3.761,3.761,0,0,1-3.766-3.766v-10.84A3.757,3.757,0,0,1,1708.966,646.7Z" transform="translate(-1705.166 -602.709)" fill="#fff"/>
  <path id="Path_1861" data-name="Path 1861" d="M1913.815,577.3l20.589-20.59a3.381,3.381,0,0,1,4.78,0l8.22,8.22a3.382,3.382,0,0,1,0,4.78l-20.589,20.59a3.381,3.381,0,0,1-4.779,0l-8.22-8.221A3.378,3.378,0,0,1,1913.815,577.3Z" transform="translate(-1873.097 -529.127)" fill="#fff"/>
</svg>
