<svg xmlns="http://www.w3.org/2000/svg" width="2320.5" height="1136.504" viewBox="0 0 2320.5 1136.504">
  <g id="Group_6293" data-name="Group 6293" transform="translate(200.5 -2235.996)">
    <g id="Group_1572" data-name="Group 1572" transform="translate(94 -8149)">
      <g id="Group_1571" data-name="Group 1571" transform="translate(-1 10483)">
        <g id="Group_1570" data-name="Group 1570" transform="translate(-293 -97.504)" opacity="0.244">
          <path id="Path_1858" data-name="Path 1858" d="M2705.513,737.68H1877.922a65.729,65.729,0,0,1-65.822-65.821V482.419a65.729,65.729,0,0,1,65.822-65.819h827.591a65.723,65.723,0,0,1,65.8,65.819v189.44A65.722,65.722,0,0,1,2705.513,737.68Z" transform="translate(-1454.355 -416.6)" fill="none" stroke="#fff" stroke-width="1"/>
          <path id="Path_1859" data-name="Path 1859" d="M2309.337,662.205,1949.5,1022.04a59.088,59.088,0,0,1-83.532,0L1722.311,878.376a59.091,59.091,0,0,1,0-83.524l359.842-359.835a59.082,59.082,0,0,1,83.529,0l143.655,143.665A59.107,59.107,0,0,1,2309.337,662.205Z" transform="translate(-1705.026 -413.967)" fill="none" stroke="#fff" stroke-width="1"/>
          <path id="Path_1860" data-name="Path 1860" d="M1771.03,646.7h827.583a65.727,65.727,0,0,1,65.814,65.818v189.11a65.723,65.723,0,0,1-65.814,65.807H1771.03a65.727,65.727,0,0,1-65.83-65.807V712.181A65.66,65.66,0,0,1,1771.03,646.7Z" transform="translate(-1704.61 122.087)" fill="none" stroke="#fff" stroke-width="1"/>
          <path id="Path_1861" data-name="Path 1861" d="M1930.133,932.852l359.818-359.833a59.083,59.083,0,0,1,83.533,0l143.652,143.663a59.092,59.092,0,0,1,0,83.525l-359.812,359.834a59.091,59.091,0,0,1-83.533,0l-143.659-143.666A59.033,59.033,0,0,1,1930.133,932.852Z" transform="translate(-1218.553 -90.9)" fill="none" stroke="#fff" stroke-width="1"/>
        </g>
      </g>
      <text id="Lets_Connect" data-name="Lets Connect" transform="translate(529 10625)" fill="#fff" font-size="38" font-family="SegoeUI, Segoe UI"><tspan x="-216.273" y="0">Lets Connect</tspan></text>
      <text id="tech_hbgdesignlab.se" data-name="tech@hbgdesignlab.se" transform="translate(981 10700)" fill="#fff" font-size="74" font-family="SegoeUI, Segoe UI"><tspan x="-741.734" y="0">tech@hbgdesignlab.se</tspan></text>
      <text id="_042_453_08_30" data-name="042 453 08 30" transform="translate(737 10787)" fill="#fff" font-size="74" font-family="SegoeUI, Segoe UI"><tspan x="-459.718" y="0">042 453 08 30</tspan></text>
    </g>
    <text id="pierre_hbgdesignlab.se" data-name="pierre@hbgdesignlab.se" transform="translate(579 2828)" fill="#fff" font-size="16" font-family="SegoeUI, Segoe UI" opacity="0.25"><tspan x="-171.281" y="0">pierre@hbgdesignlab.se</tspan></text>
    <text id="_042_453_08_30-2" data-name="042 453 08 30" transform="translate(506 2855)" fill="#fff" font-size="16" font-family="SegoeUI, Segoe UI" opacity="0.367"><tspan x="-99.398" y="0">042 453 08 30</tspan></text>
    <text id="CEO_Digital_Director_Project_Manager" data-name="CEO/Digital Director &amp; Project Manager" transform="translate(402 2738)" fill="#fff" font-size="17" font-family="SegoeUI, Segoe UI"><tspan x="0" y="0">CEO/Digital Director &amp; Project Manager</tspan></text>
    <text id="Pierre_Grönberg" data-name="Pierre Grönberg" transform="translate(402 2750)" fill="#fff" font-size="25" font-family="SegoeUI-Bold, Segoe UI" font-weight="700"><tspan x="0" y="27">Pierre Grönberg</tspan></text>
    <g id="Group_6207" data-name="Group 6207" transform="translate(1118 2291)">
      <text id="peter_hbgdesignlab.se" data-name="peter@hbgdesignlab.se" transform="translate(172 736)" fill="#fff" font-size="16" font-family="SegoeUI, Segoe UI" opacity="0.25"><tspan x="-167.266" y="0">peter@hbgdesignlab.se</tspan></text>
      <text id="_042_453_08_30-3" data-name="042 453 08 30" transform="translate(104 763)" fill="#fff" font-size="16" font-family="SegoeUI, Segoe UI" opacity="0.367"><tspan x="-99.398" y="0">042 453 08 30</tspan></text>
      <text id="Partner_Finance_" data-name="Partner &amp; Finance " transform="translate(0 646)" fill="#fff" font-size="17" font-family="SegoeUI, Segoe UI"><tspan x="0" y="0">Partner &amp; Finance </tspan></text>
      <text id="Peter_Grönberg" data-name="Peter Grönberg" transform="translate(0 658)" fill="#fff" font-size="25" font-family="SegoeUI-Bold, Segoe UI" font-weight="700"><tspan x="0" y="27">Peter Grönberg</tspan></text>
    </g>
    <text id="pierre_hbgdesignlab.se-2" data-name="pierre@hbgdesignlab.se" transform="translate(1295 2828)" fill="#fff" font-size="16" font-family="SegoeUI, Segoe UI" opacity="0.25"><tspan x="-171.281" y="0">pierre@hbgdesignlab.se</tspan></text>
    <text id="_042_453_40_41" data-name="042 453 40 41" transform="translate(1222 2855)" fill="#fff" font-size="16" font-family="SegoeUI, Segoe UI" opacity="0.367"><tspan x="-99.398" y="0">042 453 40 41</tspan></text>
    <text id="Digital_Marketing_Manager_Project_Manager" data-name="Digital Marketing Manager &amp; Project Manager" transform="translate(1118 2738)" fill="#fff" font-size="17" font-family="SegoeUI, Segoe UI"><tspan x="0" y="0">Digital Marketing Manager &amp; Project Manager</tspan></text>
    <text id="Anna_Hult_" data-name="Anna Hult " transform="translate(1118 2750)" fill="#fff" font-size="25" font-family="SegoeUI-Bold, Segoe UI" font-weight="700"><tspan x="0" y="27">Anna Hult </tspan></text>
    <g id="Group_6171" data-name="Group 6171" transform="translate(795.49 2721)">
      <text id="bijay_hbgdesignlab.se" data-name="bijay@hbgdesignlab.se" transform="translate(167.509 107)" fill="#fff" font-size="16" font-family="SegoeUI, Segoe UI" opacity="0.25"><tspan x="-163.18" y="0">bijay@hbgdesignlab.se</tspan></text>
      <text id="CTO_System_Engineer" data-name="CTO/System Engineer" transform="translate(-0.491 17)" fill="#fff" font-size="17" font-family="SegoeUI, Segoe UI"><tspan x="0" y="0">CTO/System Engineer</tspan></text>
      <text id="Bijay_Luitel" data-name="Bijay Luitel" transform="translate(-0.491 29)" fill="#fff" font-size="25" font-family="SegoeUI-Bold, Segoe UI" font-weight="700"><tspan x="0" y="27">Bijay Luitel</tspan></text>
    </g>
    <g id="Group_6172" data-name="Group 6172" transform="translate(402 2928)">
      <text id="anunay_hbgdesignlab.se" data-name="anunay@hbgdesignlab.se" transform="translate(186 107)" fill="#fff" font-size="16" font-family="SegoeUI, Segoe UI" opacity="0.25"><tspan x="-181.328" y="0">anunay@hbgdesignlab.se</tspan></text>
      <text id="Head_of_Web_Development" data-name="Head of Web Development" transform="translate(0 17)" fill="#fff" font-size="17" font-family="SegoeUI, Segoe UI"><tspan x="0" y="0">Head of Web Development</tspan></text>
      <text id="Anunay_Dahla" data-name="Anunay Dahla" transform="translate(0 29)" fill="#fff" font-size="25" font-family="SegoeUI-Bold, Segoe UI" font-weight="700"><tspan x="0" y="27">Anunay Dahla</tspan></text>
    </g>
    <g id="Group_6174" data-name="Group 6174" transform="translate(795.49 2928)">
      <text id="ravi_hbgdesignlab.se" data-name="ravi@hbgdesignlab.se" transform="translate(159.509 107)" fill="#fff" font-size="16" font-family="SegoeUI, Segoe UI" opacity="0.25"><tspan x="-155.383" y="0">ravi@hbgdesignlab.se</tspan></text>
      <text id="Internal_Project_Manager" data-name="Internal Project Manager" transform="translate(-0.491 17)" fill="#fff" font-size="17" font-family="SegoeUI, Segoe UI"><tspan x="0" y="0">Internal Project Manager</tspan></text>
      <text id="Ravi_Shresta" data-name="Ravi Shresta" transform="translate(-0.491 29)" fill="#fff" font-size="25" font-family="SegoeUI-Bold, Segoe UI" font-weight="700"><tspan x="0" y="27">Ravi Shresta</tspan></text>
    </g>
    <text id="Brogatan_9_252_66_Helsingborg" data-name="Brogatan 9, 252 66 Helsingborg" transform="translate(632 3159.5)" fill="#fff" font-size="16" font-family="SegoeUI, Segoe UI"><tspan x="-223.547" y="0">Brogatan 9, 252 66 Helsingborg</tspan></text>
    <text id="Akut_Support_support_hbgdesignlab.se_Ring:_042_424_04_43_info_hbgdesignlab.se" data-name="Akut Support 
support@hbgdesignlab.se
Ring: 042 424 04 43

info@hbgdesignlab.se" transform="translate(406 3209.5)" fill="#fff" font-size="16" font-family="SegoeUI-Bold, Segoe UI" font-weight="700"><tspan x="0" y="0">Akut Support </tspan><tspan font-family="SegoeUI, Segoe UI" font-weight="400"><tspan x="0" y="22">support@hbgdesignlab.se</tspan><tspan x="0" y="44">Ring: 042 424 04 43</tspan><tspan x="0" y="66"></tspan><tspan x="0" y="88">info@hbgdesignlab.se</tspan></tspan></text>
    <text id="Privacy_Terms_HDL_Group" data-name="Privacy   /   Terms   /   HDL Group" transform="translate(645 3368.5)" fill="#fff" font-size="16" font-family="SegoeUI, Segoe UI"><tspan x="-234.586" y="0" xml:space="preserve">Privacy   /   Terms   /   HDL Group</tspan></text>
  </g>
</svg>
