<svg id="Group_1964" data-name="Group 1964" xmlns="http://www.w3.org/2000/svg" width="73.096" height="60.457" viewBox="0 0 73.096 60.457">
  <g id="Group_1571" data-name="Group 1571" transform="translate(0)">
    <g id="Group_1569" data-name="Group 1569">
      <path id="Path_5" data-name="Path 5" d="M156.775,17.8H110.852a3.647,3.647,0,0,1-3.652-3.652V3.652A3.647,3.647,0,0,1,110.852,0h45.922a3.648,3.648,0,0,1,3.652,3.652V14.164A3.668,3.668,0,0,1,156.775,17.8Z" transform="translate(-87.33 0)" fill="#094c40"/>
      <path id="Path_6" data-name="Path 6" d="M33.558,14.591,13.591,34.558a3.279,3.279,0,0,1-4.635,0L.984,26.586a3.279,3.279,0,0,1,0-4.635L20.951,1.984a3.279,3.279,0,0,1,4.635,0l7.972,7.972A3.279,3.279,0,0,1,33.558,14.591Z" transform="translate(-0.025 -0.835)" fill="#094c40"/>
      <path id="Path_7" data-name="Path 7" d="M3.852,230H49.775a3.648,3.648,0,0,1,3.652,3.652v10.512a3.648,3.648,0,0,1-3.652,3.652H3.852A3.676,3.676,0,0,1,.2,244.146V233.634A3.644,3.644,0,0,1,3.852,230Z" transform="translate(-0.168 -187.359)" fill="#094c40"/>
      <path id="Path_8" data-name="Path 8" d="M208.784,159.951l19.967-19.967a3.278,3.278,0,0,1,4.635,0l7.972,7.972a3.279,3.279,0,0,1,0,4.635l-19.967,19.967a3.278,3.278,0,0,1-4.635,0l-7.972-7.972A3.279,3.279,0,0,1,208.784,159.951Z" transform="translate(-169.3 -113.25)" fill="#094c40"/>
    </g>
  </g>
</svg>
