<svg xmlns="http://www.w3.org/2000/svg" width="369.909" height="320.35" viewBox="0 0 369.909 320.35">
  <path id="Path_1106" data-name="Path 1106" d="M-80.254,910.3,143.422,1133.98l2.332-4.038L-73.885,910.3Zm19.429,0,211.359,211.359,2.331-4.038L-54.456,910.3Zm19.428,0,199.042,199.042,2.332-4.039-195-195Zm-71.028,26.116,234.513,234.512,2.332-4.038L-110.093,932.381ZM-98.2,911.785,136.311,1146.3l2.332-4.039L-93.313,910.3h-4.034Zm-7.111,12.317L129.2,1158.615l2.332-4.038L-102.981,920.064ZM55.746,910.3l75.386,75.385-8.7-15.072L62.116,910.3Zm-77.715,0,186.725,186.725,2.332-4.039L-15.6,910.3Zm-97.567,38.433L114.977,1183.25l2.332-4.039L-117.2,944.7ZM75.175,910.3l29.417,29.417-8.7-15.072L81.545,910.3Zm-77.715,0,174.408,174.407,2.332-4.038L3.83,910.3Zm38.858,0,121.354,121.354-8.7-15.072L42.688,910.3Zm-19.429,0,162.09,162.09,1.106-1.915-4.575-7.924L23.259,910.3Zm-82.374,320.35-75.385-75.385,8.7,15.071,60.313,60.314Zm-19.429,0-29.416-29.416,8.7,15.071,14.345,14.345Zm-98.624-171.062,171.061,171.062h6.37l-175.1-175.1Zm-6.286,10.887,3.083,5.339,154.836,154.836h6.369l-162.782-162.783Zm13.4-23.2L6.952,1230.654h6.37L-174.1,1043.237Zm131.463,183.379L-168.9,1106.717l8.7,15.07,108.866,108.867ZM-162.2,1022.64,45.81,1230.654h6.369L-159.873,1018.6Zm21.334-36.951L93.643,1220.2l2.331-4.038L-138.538,981.65Zm-28.446,49.269,195.7,195.7h6.37L-166.984,1030.92Zm35.557-61.587,234.513,234.513,2.331-4.038L-131.427,969.333Zm-14.222,24.635L84.667,1230.654h2.941l1.255-2.174L-145.65,993.968Zm21.334-36.952,234.512,234.513,2.332-4.038L-124.316,957.016Zm-28.446,49.269L65.238,1230.654h6.37l-224.369-224.369Z" transform="translate(189.824 -910.304)" fill="#094c40"/>
</svg>
